<?xml version="1.0" encoding="UTF-8" standalone="no"?>
<!-- Created with Inkscape (http://www.inkscape.org/) -->

<svg
   xmlns:dc="http://purl.org/dc/elements/1.1/"
   xmlns:cc="http://creativecommons.org/ns#"
   xmlns:rdf="http://www.w3.org/1999/02/22-rdf-syntax-ns#"
   xmlns:svg="http://www.w3.org/2000/svg"
   xmlns="http://www.w3.org/2000/svg"
   xmlns:sodipodi="http://sodipodi.sourceforge.net/DTD/sodipodi-0.dtd"
   xmlns:inkscape="http://www.inkscape.org/namespaces/inkscape"
   width="21cm"
   height="29.700001cm"
   viewBox="0 0 210 297"
   version="1.1"
   id="svg3999"
   inkscape:version="0.92.4 (5da689c313, 2019-01-14)"
   sodipodi:docname="Explr_base.svg">
  <defs
     id="defs3993" />
  <sodipodi:namedview
     id="base"
     pagecolor="#ffffff"
     bordercolor="#666666"
     borderopacity="1.0"
     inkscape:pageopacity="0.0"
     inkscape:pageshadow="2"
     inkscape:zoom="0.49497475"
     inkscape:cx="778.8881"
     inkscape:cy="531.43935"
     inkscape:document-units="cm"
     inkscape:current-layer="layer1"
     showgrid="false"
     units="cm"
     showguides="true"
     inkscape:guide-bbox="true"
     inkscape:window-width="1366"
     inkscape:window-height="705"
     inkscape:window-x="-8"
     inkscape:window-y="-8"
     inkscape:window-maximized="1"
     inkscape:lockguides="false">
    <inkscape:grid
       type="xygrid"
       id="grid3785" />
    <sodipodi:guide
       position="16.489211,298.60119"
       orientation="1,0"
       id="guide3756"
       inkscape:locked="false" />
    <sodipodi:guide
       position="166.78199,298.17597"
       orientation="1,0"
       id="guide3758"
       inkscape:locked="false" />
    <sodipodi:guide
       position="16.489211,239.20623"
       orientation="0,1"
       id="guide3779"
       inkscape:locked="false" />
    <sodipodi:guide
       position="16.489211,267.67044"
       orientation="0,1"
       id="guide3781"
       inkscape:locked="false" />
    <sodipodi:guide
       position="16.489211,210.87566"
       orientation="0,1"
       id="guide3783"
       inkscape:locked="false" />
    <sodipodi:guide
       position="-46.371262,276.08943"
       orientation="1,0"
       id="guide4033"
       inkscape:locked="false" />
  </sodipodi:namedview>
  <metadata
     id="metadata3996">
    <rdf:RDF>
      <cc:Work
         rdf:about="">
        <dc:format>image/svg+xml</dc:format>
        <dc:type
           rdf:resource="http://purl.org/dc/dcmitype/StillImage" />
        <dc:title />
      </cc:Work>
    </rdf:RDF>
  </metadata>
  <g
     inkscape:label="Layer 1"
     inkscape:groupmode="layer"
     id="layer1">
    <path
       style="fill:#786721;stroke-width:0.93459016"
       d="M 62.359375 3.0585938 A 62.798261 216.28514 0 0 0 6.4511719 217.77148 A 62.798261 216.28514 0 0 0 62.390625 432.66797 L 62.390625 434.05664 L 147.90625 434.05664 L 204.59961 434.05664 L 318.20312 434.05664 L 374.89648 434.05664 L 489.25195 434.05664 L 545.94531 434.05664 L 625.94531 434.05664 L 626.58594 434.05664 L 626.58594 433.73828 A 62.798261 216.28514 0 0 0 686.76562 217.77148 L 686.76562 217.76953 A 62.798261 216.28514 0 0 0 630.23633 3.0585938 L 62.359375 3.0585938 z M 151.94531 11.826172 L 206.94531 11.826172 L 206.94531 25.175781 L 151.94531 25.175781 L 151.94531 11.826172 z M 321.94531 11.826172 L 376.94531 11.826172 L 376.94531 25.175781 L 321.94531 25.175781 L 321.94531 11.826172 z M 491.94531 11.929688 L 546.94531 11.929688 L 546.94531 25.28125 L 491.94531 25.28125 L 491.94531 11.929688 z M 62.378906 83.322266 L 77.380859 83.322266 C 77.412891 83.322266 77.439453 83.346875 77.439453 83.378906 L 77.439453 138.26367 C 77.439453 138.2957 77.412891 138.32031 77.380859 138.32031 L 62.378906 138.32031 C 62.346875 138.32031 62.322266 138.2957 62.322266 138.26367 L 62.322266 83.378906 C 62.322266 83.346875 62.346875 83.322266 62.378906 83.322266 z M 615.25977 83.322266 L 630.26172 83.322266 C 630.29375 83.322266 630.32031 83.346875 630.32031 83.378906 L 630.32031 138.26367 C 630.32031 138.2957 630.29375 138.32031 630.26172 138.32031 L 615.25977 138.32031 C 615.22773 138.32031 615.20117 138.2957 615.20117 138.26367 L 615.20117 83.378906 C 615.20117 83.346875 615.22773 83.322266 615.25977 83.322266 z M 424.16406 164.50391 L 424.16602 164.50391 A 6.066141 6.066141 0 0 1 430.22852 170.50195 A 6.066141 6.066141 0 0 1 430.23242 170.57031 A 6.066141 6.066141 0 0 1 430.23242 170.58984 A 6.0661414 6.0661414 0 0 1 430.24414 170.93164 A 6.0661414 6.0661414 0 0 1 424.17773 176.99805 A 6.0661414 6.0661414 0 0 1 418.11133 170.93164 A 6.0661414 6.0661414 0 0 1 418.11328 170.87109 A 6.066141 6.066141 0 0 1 418.09766 170.57031 A 6.066141 6.066141 0 0 1 424.16406 164.50391 z M 442 182.38672 L 536.48828 182.38672 L 536.48828 231.51953 L 442 231.51953 L 442 182.38672 z M 347.38867 186.32422 A 15.155906 15.155906 0 0 1 362.50195 200.625 A 15.155906 15.155906 0 0 1 362.54297 201.42969 A 15.155906 15.155906 0 0 1 362.54492 201.48047 A 15.155906 15.155906 0 0 1 362.54492 201.49219 A 15.155906 15.155906 0 0 1 362.55664 201.8418 A 15.155906 15.155906 0 0 1 347.40039 216.99805 A 15.155906 15.155906 0 0 1 332.24414 201.8418 A 15.155906 15.155906 0 0 1 332.24805 201.77734 A 15.155906 15.155906 0 0 1 332.23242 201.48047 A 15.155906 15.155906 0 0 1 347.38867 186.32422 z M 390 194.51953 A 7.2566918 7.2566918 0 0 1 397.24609 201.59961 A 7.2566922 7.2566922 0 0 1 397.25391 201.73438 A 7.2566918 7.2566918 0 0 1 397.25586 201.77539 A 7.2566922 7.2566922 0 0 1 397.25586 201.78516 A 7.2566922 7.2566922 0 0 1 397.26758 202.13672 A 7.2566922 7.2566922 0 0 1 390.01172 209.39453 A 7.2566922 7.2566922 0 0 1 382.75391 202.13672 A 7.2566922 7.2566922 0 0 1 382.75781 202.07031 A 7.2566918 7.2566918 0 0 1 382.74219 201.77539 A 7.2566918 7.2566918 0 0 1 390 194.51953 z M 423.98828 228.1582 A 6.066141 6.066141 0 0 1 430.05078 234.15625 A 6.066141 6.066141 0 0 1 430.05469 234.22461 A 6.066141 6.066141 0 0 1 430.05469 234.24414 A 6.0661414 6.0661414 0 0 1 430.06641 234.58594 A 6.0661414 6.0661414 0 0 1 424 240.65039 A 6.0661414 6.0661414 0 0 1 417.93555 234.58594 A 6.0661414 6.0661414 0 0 1 417.93945 234.51758 A 6.066141 6.066141 0 0 1 417.92383 234.22461 A 6.066141 6.066141 0 0 1 423.98828 228.1582 z M 62.423828 298.01953 L 77.425781 298.01953 C 77.457813 298.01953 77.484375 298.04612 77.484375 298.07812 L 77.484375 352.96094 C 77.484375 352.99297 77.457813 353.01953 77.425781 353.01953 L 62.423828 353.01953 C 62.391797 353.01953 62.365234 352.99297 62.365234 352.96094 L 62.365234 298.07812 C 62.365234 298.04612 62.391797 298.01953 62.423828 298.01953 z M 615.30469 298.01953 L 630.30664 298.01953 C 630.33867 298.01953 630.36328 298.04609 630.36328 298.07812 L 630.36328 352.96094 C 630.36328 352.99297 630.33867 353.01953 630.30664 353.01953 L 615.30469 353.01953 C 615.27266 353.01953 615.24609 352.99297 615.24609 352.96094 L 615.24609 298.07812 C 615.24609 298.04609 615.27266 298.01953 615.30469 298.01953 z M 151.94531 411.7207 L 206.94531 411.7207 L 206.94531 425.07031 L 151.94531 425.07031 L 151.94531 411.7207 z M 321.94531 411.7207 L 376.94531 411.7207 L 376.94531 425.07031 L 321.94531 425.07031 L 321.94531 411.7207 z M 491.94531 411.82422 L 546.94531 411.82422 L 546.94531 425.17578 L 491.94531 425.17578 L 491.94531 411.82422 z "
       id="path4087"
       transform="scale(0.26458333)" />
    <flowRoot
       xml:space="preserve"
       id="flowRoot4113"
       style="font-style:normal;font-weight:normal;font-size:40px;line-height:1.25;font-family:sans-serif;letter-spacing:0px;word-spacing:0px;fill:#000000;fill-opacity:1;stroke:none"
       transform="scale(0.26458333)"><flowRegion
         id="flowRegion4115"><rect
           id="rect4117"
           width="96.974648"
           height="50.507626"
           x="-381.83768"
           y="977.05768" /></flowRegion><flowPara
         id="flowPara4119" /></flowRoot>    <flowRoot
       xml:space="preserve"
       id="flowRoot4126"
       style="font-style:normal;font-weight:normal;font-size:40px;line-height:1.25;font-family:sans-serif;letter-spacing:0px;word-spacing:0px;fill:#000000;fill-opacity:1;stroke:none"
       transform="matrix(0,0.26458333,-0.26458333,0,293.44343,-8.2861656)"><flowRegion
         id="flowRegion4128"><rect
           id="rect4130"
           width="163.64471"
           height="62.629459"
           x="250.51784"
           y="981.09827" /></flowRegion><flowPara
         id="flowPara4132">Top</flowPara></flowRoot>    <flowRoot
       xml:space="preserve"
       id="flowRoot4134"
       style="font-style:normal;font-weight:normal;font-size:40px;line-height:1.25;font-family:sans-serif;letter-spacing:0px;word-spacing:0px;fill:#000000;fill-opacity:1;stroke:none"
       transform="scale(0.26458333)"><flowRegion
         id="flowRegion4136"><rect
           id="rect4138"
           width="143.44167"
           height="40.406101"
           x="256.57874"
           y="655.82916" /></flowRegion><flowPara
         id="flowPara4140">holswivel</flowPara></flowRoot>    <flowRoot
       xml:space="preserve"
       id="flowRoot4142"
       style="font-style:normal;font-weight:normal;font-size:40px;line-height:1.25;font-family:sans-serif;letter-spacing:0px;word-spacing:0px;fill:#000000;fill-opacity:1;stroke:none"
       transform="matrix(-0.26458333,0,0,-0.26458333,191.85049,250.14583)"><flowRegion
         id="flowRegion4144"><rect
           id="rect4146"
           width="143.44167"
           height="54.548252"
           x="220.21326"
           y="623.50427" /></flowRegion><flowPara
         id="flowPara4148">Swivel motor</flowPara></flowRoot>    <path
       style="fill:#786721;stroke-width:0.26492769"
       d="m 40.202196,130.51968 v 3.39411 H 16.826885 v 35.99987 h 23.375311 v 3.75894 h 14.552083 v -3.75894 h 30.427083 v 3.75894 h 14.552063 v -3.75894 h 30.426985 v 3.72432 h 14.5526 v -3.72432 h 21.61367 v -35.99987 h -21.61367 v -3.35949 h -14.5526 v 3.35949 H 99.733425 v -3.39411 H 85.181362 v 3.39411 H 54.754279 v -3.39411 z m 94.780144,11.39569 a 1.6049999,1.6049999 0 0 1 1.60507,1.60507 1.6049999,1.6049999 0 0 1 -1.60507,1.60507 1.6049999,1.6049999 0 0 1 -1.60507,-1.60507 1.6049999,1.6049999 0 0 1 1.60507,-1.60507 z m -87.592468,0.23151 a 1.605,1.605 0 0 1 0.415478,0.0553 1.605,1.605 0 0 1 1.351854,1.58285 1.605,1.605 0 0 1 -1.605069,1.60507 1.605,1.605 0 0 1 -0.394808,-0.0517 1.605,1.605 0 0 1 -1.372526,-1.58646 1.605,1.605 0 0 1 1.605071,-1.60507 z m 4.718574,4.73149 h 25.000023 v 12.99972 H 52.108446 Z m 53.445784,0 h 24.99996 v 12.99972 h -24.99996 z m 49.74212,0.81029 a 4.0100001,4.0100001 0 0 1 4.01009,4.01009 4.0100001,4.0100001 0 0 1 -4.01009,4.01009 4.0100001,4.0100001 0 0 1 -4.01009,-4.01009 4.0100001,4.0100001 0 0 1 4.01009,-4.01009 z m -128.220485,0.23151 a 4.0100001,4.0100001 0 0 1 0.856279,0.0977 4.0100001,4.0100001 0 0 1 3.316076,3.94549 4.0100001,4.0100001 0 0 1 -4.010091,4.01009 4.0100001,4.0100001 0 0 1 -0.839224,-0.091 4.0100001,4.0100001 0 0 1 -3.333129,-3.95221 4.0100001,4.0100001 0 0 1 4.010089,-4.01009 z M 144.0221,149.857 a 1.9199998,1.9199998 0 0 1 1.9203,1.91978 1.9199998,1.9199998 0 0 1 -1.9203,1.9203 1.9199998,1.9199998 0 0 1 -1.91978,-1.9203 1.9199998,1.9199998 0 0 1 1.91978,-1.91978 z m -105.671988,0.23151 a 1.9199999,1.9199999 0 0 1 0.472324,0.0605 1.9199999,1.9199999 0 0 1 1.60972,1.89239 1.9199999,1.9199999 0 0 1 -1.91978,1.9203 1.9199999,1.9199999 0 0 1 -0.453202,-0.0563 1.9199999,1.9199999 0 0 1 -1.629357,-1.89704 1.9199999,1.9199999 0 0 1 1.920295,-1.91978 z m 96.679258,8.66872 a 1.6049999,1.6049999 0 0 1 1.60455,1.60507 1.6049999,1.6049999 0 0 1 -1.60455,1.60455 1.6049999,1.6049999 0 0 1 -1.60507,-1.60455 1.6049999,1.6049999 0 0 1 1.60507,-1.60507 z m -87.686525,0.23151 a 1.605,1.605 0 0 1 0.415478,0.0553 1.605,1.605 0 0 1 1.351856,1.58285 1.605,1.605 0 0 1 -1.605071,1.60455 1.605,1.605 0 0 1 -0.39584,-0.0517 1.605,1.605 0 0 1 -1.370976,-1.58595 1.605,1.605 0 0 1 1.604553,-1.60507 z"
       id="rect3887"
       inkscape:connector-curvature="0" />
    <rect
       style="fill:#ffffff;stroke-width:0.26458332"
       id="rect3963"
       width="10.690781"
       height="2.80633"
       x="-10.690781"
       y="15.565197" />
    <rect
       style="fill:#ffffff;stroke-width:0.26458332"
       id="rect3968"
       width="10.557146"
       height="8.2853546"
       x="-6.9490075"
       y="7.8143802" />
    <rect
       style="fill:#ffffff;stroke-width:0.26458332"
       id="rect3972"
       width="12.294398"
       height="0.93544334"
       x="-8.5526247"
       y="11.155249" />
    <rect
       style="fill:#ffffff;stroke-width:0.26458332"
       id="rect4025"
       width="14.390998"
       height="4.361619"
       x="67.846725"
       y="-16.342253" />
    <path
       inkscape:connector-curvature="0"
       style="fill:#504416;stroke-width:0.24727698"
       d="m -142.98895,132.57931 h -3.99975 -0.0222 v -21.10776 -1.81436 h -0.41135 a 57.225443,16.615376 0 0 0 -56.8141,-14.80065 57.225443,16.615376 0 0 0 -56.85803,14.80065 h -0.36742 v 1.81436 20.81165 h -3.92844 v 15.00012 h 3.92844 v 7.1117 21.98936 0.95653 h -3.94653 v 15.00012 h 3.94653 v 0.0915 1.98438 22.28597 5.89473 h -3.95066 v 15.00012 h 3.95066 v 20.6437 0.69246 h 0.0842 a 57.225443,16.615376 0 0 0 57.14122,15.92252 h 5.3e-4 a 57.225443,16.615376 0 0 0 57.10607,-15.92255 h 0.11937 v -0.69246 -20.3476 h 3.99924 v -15.00011 h -3.99924 v -6.19084 -0.29301 -23.97734 h 0.004 v 0.20464 h 3.99976 v -15.00012 h -3.99976 v 1.05833 h -0.004 v -24.30033 h 0.10956 v -6.81559 h 3.9119 v -3.68557 z m -52.85724,52.41953 a 3.9999999,3.9999999 0 0 1 -3.99975,3.99976 3.9999999,3.9999999 0 0 1 -4.00027,-3.99976 3.9999999,3.9999999 0 0 1 4.00027,-4.00027 3.9999999,3.9999999 0 0 1 3.99975,4.00027 z"
       id="path4087-6" />
    <path
       inkscape:connector-curvature="0"
       style="fill:#504416;stroke-width:0.26492769"
       d="m -308.63851,-37.213176 h -35.99987 V 112.28673 h 35.99987 z m -1.90479,22.96139 V 0.7483243 h -4.00027 V -14.251786 Z m -0.0796,45.0267 v 15.00011 h -4.00028 v -15.00011 z m 0,45.20602 v 15.00012 h -4.00028 v -15.00012 z m -28.04377,-90.31437 V 0.6666743 h -4.00027 V -14.333436 Z m -0.0796,45.0267 v 15.00011 h -4.00027 v -15.00011 z m 0,45.20603 v 15.00011 h -4.00027 v -15.00011 z"
       id="rect3887-5" />
    <path
       inkscape:connector-curvature="0"
       style="fill:#504416;stroke-width:0.26492769"
       d="m -311.51534,123.17858 h -35.99987 v 149.49991 h 35.99987 z m -1.90479,22.96138 v 15.00012 h -4.00028 v -15.00012 z m -0.0796,45.02671 v 15.00011 H -317.5 v -15.00011 z m 0,45.20602 v 15.00012 H -317.5 v -15.00012 z m -11.9915,-102.40562 a 3.9999999,3.9999999 0 0 1 -3.99976,3.99976 3.9999999,3.9999999 0 0 1 -4.00027,-3.99976 3.9999999,3.9999999 0 0 1 4.00027,-4.00027 3.9999999,3.9999999 0 0 1 3.99976,4.00027 z m -0.0667,127.8604 a 3.9999997,3.9999997 0 0 1 -3.99975,3.99976 3.9999997,3.9999997 0 0 1 -4.00028,-3.99976 3.9999997,3.9999997 0 0 1 4.00028,-4.00027 3.9999997,3.9999997 0 0 1 3.99975,4.00027 z m -15.98555,-115.76916 v 15.00012 h -4.00027 v -15.00012 z m -0.0796,45.02671 v 15.00011 h -4.00028 v -15.00011 z m 0,45.20603 v 15.00011 h -4.00028 v -15.00011 z"
       id="rect3887-6" />
    <path
       style="fill:#786721;stroke-width:0.93459016"
       d="M 55.414062 688.29688 A 62.798268 216.28514 0 0 0 -0.49414062 903.00977 A 62.798268 216.28514 0 0 0 55.445312 1117.9062 L 55.445312 1119.2949 L 140.96094 1119.2949 L 197.6543 1119.2949 L 311.25781 1119.2949 L 367.95117 1119.2949 L 482.30664 1119.2949 L 539 1119.2949 L 619 1119.2949 L 619.64062 1119.2949 L 619.64062 1118.9766 A 62.798268 216.28514 0 0 0 679.82031 903.00977 L 679.82031 903.00781 A 62.798268 216.28514 0 0 0 623.29102 688.29688 L 55.414062 688.29688 z M 145 697.06445 L 200 697.06445 L 200 710.41406 L 145 710.41406 L 145 697.06445 z M 315 697.06445 L 370 697.06445 L 370 710.41406 L 315 710.41406 L 315 697.06445 z M 485 697.16797 L 540 697.16797 L 540 710.51953 L 485 710.51953 L 485 697.16797 z M 55.248047 768.29688 L 70.251953 768.29688 C 70.283984 768.29687 70.308594 768.32148 70.308594 768.35352 L 70.308594 823.23828 C 70.308594 823.27031 70.283984 823.29687 70.251953 823.29688 L 55.248047 823.29688 C 55.216016 823.29687 55.191406 823.27031 55.191406 823.23828 L 55.191406 768.35352 C 55.191406 768.32148 55.216016 768.29688 55.248047 768.29688 z M 608.12891 768.29688 L 623.13281 768.29688 C 623.16484 768.29687 623.18945 768.32148 623.18945 768.35352 L 623.18945 823.23828 C 623.18945 823.27031 623.16484 823.29687 623.13281 823.29688 L 608.12891 823.29688 C 608.09687 823.29687 608.07227 823.27031 608.07227 823.23828 L 608.07227 768.35352 C 608.07227 768.32148 608.09687 768.29688 608.12891 768.29688 z M 340.20117 871.29883 A 15.11811 15.11811 0 0 1 355.31836 886.41602 A 15.11811 15.11811 0 0 1 340.20117 901.53516 A 15.11811 15.11811 0 0 1 325.08203 886.41602 A 15.11811 15.11811 0 0 1 340.20117 871.29883 z M 55.292969 982.99414 L 70.296875 982.99414 C 70.328906 982.99414 70.353516 983.01875 70.353516 983.05078 L 70.353516 1037.9355 C 70.353516 1037.9676 70.328906 1037.9941 70.296875 1037.9941 L 55.292969 1037.9941 C 55.260937 1037.9941 55.236328 1037.9676 55.236328 1037.9355 L 55.236328 983.05078 C 55.236328 983.01875 55.260937 982.99414 55.292969 982.99414 z M 608.17383 982.99414 L 623.17773 982.99414 C 623.20977 982.99414 623.23437 983.01875 623.23438 983.05078 L 623.23438 1037.9355 C 623.23437 1037.9676 623.20977 1037.9941 623.17773 1037.9941 L 608.17383 1037.9941 C 608.1418 1037.9941 608.11719 1037.9676 608.11719 1037.9355 L 608.11719 983.05078 C 608.11719 983.01875 608.1418 982.99414 608.17383 982.99414 z M 145 1096.959 L 200 1096.959 L 200 1110.3086 L 145 1110.3086 L 145 1096.959 z M 315 1096.959 L 370 1096.959 L 370 1110.3086 L 315 1110.3086 L 315 1096.959 z M 485 1097.0625 L 540 1097.0625 L 540 1110.4141 L 485 1110.4141 L 485 1097.0625 z "
       transform="scale(0.26458333)"
       id="path4087-4" />
    <path
       inkscape:connector-curvature="0"
       style="fill:#00ff00;stroke-width:0.22914289"
       d="m 310.20016,-0.38903159 a 1.605,1.605 0 0 0 -1.60506,-1.60507001 1.605,1.605 0 0 0 -1.60508,1.60507001 1.605,1.605 0 0 0 1.60508,1.60506999 1.605,1.605 0 0 0 1.60506,-1.60506999 z M 305.46867,4.3295384 H 292.46895 V 29.329568 h 12.99972 z m -1.0418,-25.0325804 a 4.0100001,4.0100001 0 0 0 -4.01009,-4.01009 4.0100001,4.0100001 0 0 0 -4.01009,4.01009 4.0100001,4.0100001 0 0 0 4.01009,4.01009 4.0100001,4.0100001 0 0 0 4.01009,-4.01009 z m -2.16834,11.2742504 a 1.9199999,1.9199999 0 0 0 -1.91978,-1.9202904 1.9199999,1.9199999 0 0 0 -1.92029,1.9202904 1.9199999,1.9199999 0 0 0 1.92029,1.91978 1.9199999,1.9199999 0 0 0 1.91978,-1.91978 z m -8.90023,8.99273001 a 1.605,1.605 0 0 0 -1.60507,-1.60455001 1.605,1.605 0 0 0 -1.60455,1.60455001 1.605,1.605 0 0 0 1.60455,1.60506999 1.605,1.605 0 0 0 1.60507,-1.60506999 z"
       id="path4092-3-6-1" />
    <path
       inkscape:connector-curvature="0"
       style="fill:#00ff00;stroke-width:0.22914289"
       d="m -90.625084,-20.992998 a 1.605,1.605 0 0 0 -1.60506,-1.60507 1.605,1.605 0 0 0 -1.60508,1.60507 1.605,1.605 0 0 0 1.60508,1.60507 1.605,1.605 0 0 0 1.60506,-1.60507 z m -4.73149,4.71857 H -108.35629 V 8.7256023 h 12.999716 z m -1.0418,-25.03258 a 4.0100001,4.0100001 0 0 0 -4.010086,-4.01009 4.0100001,4.0100001 0 0 0 -4.01009,4.01009 4.0100001,4.0100001 0 0 0 4.01009,4.01009 4.0100001,4.0100001 0 0 0 4.010086,-4.01009 z m -2.16834,11.27425 a 1.9199999,1.9199999 0 0 0 -1.919776,-1.92029 1.9199999,1.9199999 0 0 0 -1.92029,1.92029 1.9199999,1.9199999 0 0 0 1.92029,1.91978 1.9199999,1.9199999 0 0 0 1.919776,-1.91978 z m -8.900226,8.99273 a 1.605,1.605 0 0 0 -1.60507,-1.60455 1.605,1.605 0 0 0 -1.60455,1.60455 1.605,1.605 0 0 0 1.60455,1.60507 1.605,1.605 0 0 0 1.60507,-1.60507 z"
       id="path4092-3-6-1-9" />
    <path
       inkscape:connector-curvature="0"
       style="fill:#786721;stroke-width:0.26492769"
       d="m 181.78908,251.65389 h 3.39411 v 23.37532 h 35.99987 V 251.65389 H 224.942 V 237.1018 h -3.75894 v -30.42708 h 3.75894 v -14.55208 h -3.75894 v -30.42708 h 3.72432 v -14.5526 h -3.72432 v -21.61367 h -35.99987 v 21.61367 h -3.35949 v 14.5526 h 3.35949 v 30.42708 h -3.39411 v 14.55208 h 3.39411 v 30.42708 h -3.39411 z m 11.39569,-94.78026 a 1.6049999,1.6049999 0 0 1 1.60507,-1.60507 1.6049999,1.6049999 0 0 1 1.60507,1.60507 1.6049999,1.6049999 0 0 1 -1.60507,1.60507 1.6049999,1.6049999 0 0 1 -1.60507,-1.60507 z m 0.23151,87.59258 a 1.605,1.605 0 0 1 0.0553,-0.41547 1.605,1.605 0 0 1 1.58285,-1.35187 1.605,1.605 0 0 1 1.60507,1.60508 1.605,1.605 0 0 1 -0.0517,0.39481 1.605,1.605 0 0 1 -1.58647,1.37252 1.605,1.605 0 0 1 -1.60507,-1.60507 z m 4.73149,-4.71858 v -25.00002 h 12.99972 v 25.00002 z m 0,-53.44583 v -25.00002 h 12.99972 v 25.00002 z m 0.81029,-49.74217 a 4.0100001,4.0100001 0 0 1 4.01009,-4.0101 4.0100001,4.0100001 0 0 1 4.01009,4.0101 4.0100001,4.0100001 0 0 1 -4.01009,4.01009 4.0100001,4.0100001 0 0 1 -4.01009,-4.01009 z m 0.23151,128.22059 a 4.0100001,4.0100001 0 0 1 0.0977,-0.85628 4.0100001,4.0100001 0 0 1 3.94549,-3.31607 4.0100001,4.0100001 0 0 1 4.0101,4.01009 4.0100001,4.0100001 0 0 1 -0.0909,0.83922 4.0100001,4.0100001 0 0 1 -3.95222,3.33313 4.0100001,4.0100001 0 0 1 -4.01009,-4.01009 z m 1.93683,-116.94635 a 1.9199998,1.9199998 0 0 1 1.91978,-1.9203 1.9199998,1.9199998 0 0 1 1.9203,1.9203 1.9199998,1.9199998 0 0 1 -1.9203,1.91978 1.9199998,1.9199998 0 0 1 -1.91978,-1.91978 z m 0.23151,105.6721 a 1.9199999,1.9199999 0 0 1 0.0605,-0.47232 1.9199999,1.9199999 0 0 1 1.89239,-1.60972 1.9199999,1.9199999 0 0 1 1.9203,1.91978 1.9199999,1.9199999 0 0 1 -0.0563,0.4532 1.9199999,1.9199999 0 0 1 -1.89705,1.62936 1.9199999,1.9199999 0 0 1 -1.91978,-1.9203 z m 8.66872,-96.67936 a 1.6049999,1.6049999 0 0 1 1.60507,-1.60456 1.6049999,1.6049999 0 0 1 1.60456,1.60456 1.6049999,1.6049999 0 0 1 -1.60456,1.60506 1.6049999,1.6049999 0 0 1 -1.60507,-1.60506 z m 0.23151,87.68663 a 1.605,1.605 0 0 1 0.0553,-0.41548 1.605,1.605 0 0 1 1.58285,-1.35186 1.605,1.605 0 0 1 1.60455,1.60508 1.605,1.605 0 0 1 -0.0517,0.39584 1.605,1.605 0 0 1 -1.58595,1.37097 1.605,1.605 0 0 1 -1.60507,-1.60455 z"
       id="rect3887-68" />
    <path
       style="fill:#786721;stroke-width:1.00821662"
       d="M -46.353172,1.9349924 V 20.910578 h -0.01809 v -0.04392 c 0,-0.0085 -0.007,-0.01499 -0.0155,-0.01499 h -3.969267 c -0.0085,0 -0.01551,0.0065 -0.0155,0.01499 v 14.521593 c 0,0.0085 0.007,0.01499 0.0155,0.01499 h 2.248959 1.720308 0.03359 v 42.301811 h -0.0067 v -0.03307 c 0,-0.0085 -0.0065,-0.0155 -0.01499,-0.0155 h -3.969267 c -0.0085,0 -0.0155,0.007 -0.0155,0.0155 v 14.521076 c 0,0.0085 0.007,0.01551 0.0155,0.01551 h 3.969267 c 0.0059,0 0.0079,-0.0059 0.01034,-0.01085 h 0.01137 V 111.3004 h 36.229809 V 92.208551 h 3.965133 c 0.0085,0 0.0155,-0.007 0.0155,-0.01551 V 77.67197 c 0,-0.0085 -0.007,-0.0155 -0.0155,-0.0155 h -3.965133 V 35.403232 h 3.953247 c 0.0085,0 0.0155,-0.007 0.0155,-0.0155 V 20.866653 c 0,-0.0085 -0.007,-0.01499 -0.0155,-0.01499 h -3.953247 V 1.9349924 Z m 17.965311,33.6134506 a 2.97,2.97 0 0 1 2.970361,2.970361 2.97,2.97 0 0 1 -2.970361,2.969845 2.97,2.97 0 0 1 -2.969845,-2.969845 2.97,2.97 0 0 1 2.969845,-2.970361 z m -0.01395,50.505445 a 2.97,2.97 0 0 1 2.970361,2.969844 2.97,2.97 0 0 1 -2.970361,2.969845 2.97,2.97 0 0 1 -2.969845,-2.969845 2.97,2.97 0 0 1 2.969845,-2.969844 z"
       id="rect3760"
       inkscape:connector-curvature="0" />
    <rect
       style="fill:#ff0000;stroke-width:0.28156394"
       id="rect3762"
       width="14.552064"
       height="4"
       x="-137.40672"
       y="122.84712"
       ry="0.015297772" />
    <path
       style="fill:#504416;stroke-width:0.24727698"
       d="m -147.66303,-57.358652 a 57.225443,16.615374 0 0 0 -56.80945,-14.79238 57.225443,16.615374 0 0 0 -56.85799,14.80064 h -0.36742 v 22.62601 15.00012 30.05759 15.0001 30.256548 15.000124 21.16666 0.1695 h 0.0842 a 57.225443,16.615374 0 0 0 57.14118,15.92254 h 5.3e-4 a 57.225443,16.615374 0 0 0 56.80895,-14.9567 z m -2.31976,23.70294 v 14.55208 h -3.53208 v -14.55208 z m 0,44.97917 v 14.55206 h -3.53208 v -14.55206 z m -0.0274,44.979138 V 70.85468 h -3.5326 V 56.302596 Z m -40.36859,-17.933269 a 1.6049999,1.6049999 0 0 1 -1.58698,1.60403 1.6049999,1.6049999 0 0 1 -0.0181,10e-4 1.6049999,1.6049999 0 0 1 -0.005,0 1.605,1.605 0 0 1 -0.0904,0.003 1.605,1.605 0 0 1 -1.60508,-1.60508 1.605,1.605 0 0 1 1.60508,-1.60507 1.605,1.605 0 0 1 0.016,5.3e-4 1.6049999,1.6049999 0 0 1 0.0796,-0.004 1.6049999,1.6049999 0 0 1 1.60506,1.60507 z m -4.7315,4.718569 v 25.00003 h -12.99972 v -25.00003 z m -1.04179,-25.032558 a 4.0100001,4.0100001 0 0 1 -3.78375,3.99872 4.0100001,4.0100001 0 0 1 -0.21291,0.0109 4.0100001,4.0100001 0 0 1 -0.0134,5.3e-4 4.0100001,4.0100001 0 0 1 -0.003,0 4.0100001,4.0100001 0 0 1 -0.0925,0.003 4.0100001,4.0100001 0 0 1 -4.01009,-4.01009 4.0100001,4.0100001 0 0 1 4.01009,-4.01009 4.0100001,4.0100001 0 0 1 0.017,10e-4 4.0100001,4.0100001 0 0 1 0.0785,-0.004 4.0100001,4.0100001 0 0 1 4.01009,4.01009 z m -2.16835,11.27423 a 1.9199998,1.9199998 0 0 1 -1.87327,1.91719 1.9199999,1.9199999 0 0 1 -0.0357,0.002 1.9199998,1.9199998 0 0 1 -0.0109,5.3e-4 1.9199999,1.9199999 0 0 1 -0.003,0 1.9199999,1.9199999 0 0 1 -0.093,0.003 1.9199999,1.9199999 0 0 1 -1.92029,-1.91978 1.9199999,1.9199999 0 0 1 1.92029,-1.9203 1.9199999,1.9199999 0 0 1 0.0176,0.001 1.9199998,1.9199998 0 0 1 0.078,-0.004 1.9199998,1.9199998 0 0 1 1.91978,1.9203 z m -8.90023,8.992729 a 1.6049999,1.6049999 0 0 1 -1.58698,1.60404 1.6049999,1.6049999 0 0 1 -0.0181,0.001 1.6049999,1.6049999 0 0 1 -0.005,0 1.605,1.605 0 0 1 -0.0904,0.003 1.605,1.605 0 0 1 -1.60455,-1.60506 1.605,1.605 0 0 1 1.60455,-1.60456 1.605,1.605 0 0 1 0.0181,10e-4 1.6049999,1.6049999 0 0 1 0.0775,-0.004 1.6049999,1.6049999 0 0 1 1.60507,1.60455 z m -48.56754,-71.978009 v 14.55208 h -3.53208 v -14.55208 z m 0,44.97917 v 14.55206 h -3.53208 v -14.55206 z m -0.0274,44.979138 V 70.85468 h -3.53259 V 56.302596 Z"
       id="path4087-5"
       inkscape:connector-curvature="0" />
    <path
       style="fill:#786721;stroke-width:1.00821769"
       d="m 191.75123,10.685229 v 18.644339 h -0.0227 c -0.003,-0.0047 -0.005,-0.01033 -0.0109,-0.01033 h -3.96927 c -0.008,0 -0.0155,0.007 -0.0155,0.01499 v 14.521595 c 0,0.008 0.007,0.01499 0.0155,0.01499 h 3.96927 c 0.008,0 0.0155,-0.006 0.0155,-0.01499 v -0.03359 h 0.0181 v 42.302329 h -0.0217 -1.46967 -2.49959 c -0.008,0 -0.0155,0.007 -0.0155,0.0155 v 14.521078 c 0,0.009 0.007,0.0155 0.0155,0.0155 h 3.96926 c 0.008,0 0.015,-0.007 0.015,-0.0155 v -0.0439 h 0.007 v 18.93837 h 36.22932 v -18.87895 h 3.96513 c 0.008,0 0.0155,-0.007 0.0155,-0.0155 V 86.140053 c 0,-0.008 -0.007,-0.0155 -0.0155,-0.0155 h -3.96513 V 43.8708 h 3.95324 c 0.008,0 0.0155,-0.006 0.0155,-0.01499 V 29.334219 c 0,-0.008 -0.007,-0.01499 -0.0155,-0.01499 h -3.95324 v -18.634 z"
       id="rect3760-4"
       inkscape:connector-curvature="0" />
    <text
       xml:space="preserve"
       style="font-style:normal;font-weight:normal;font-size:4.93888903px;line-height:1.25;font-family:sans-serif;letter-spacing:0px;word-spacing:0px;fill:#000000;fill-opacity:1;stroke:none;stroke-width:0.30089384"
       x="220.55656"
       y="29.502712"
       id="text3964"
       transform="scale(0.8793245,1.1372366)"><tspan
         sodipodi:role="line"
         id="tspan3962"
         x="220.55656"
         y="29.502712"
         style="font-size:4.93888903px;stroke-width:0.30089384">back wire cover</tspan></text>
    <flowRoot
       xml:space="preserve"
       id="flowRoot3966"
       style="fill:black;fill-opacity:1;stroke:none;font-family:sans-serif;font-style:normal;font-weight:normal;font-size:13.33333333px;line-height:1.25;letter-spacing:0px;word-spacing:0px"><flowRegion
         id="flowRegion3968"><rect
           id="rect3970"
           width="80.812202"
           height="38.385796"
           x="-217.1828"
           y="18.422983" /></flowRegion><flowPara
         id="flowPara3972"></flowPara></flowRoot>    <text
       xml:space="preserve"
       style="font-style:normal;font-weight:normal;font-size:4.93888903px;line-height:1.25;font-family:sans-serif;letter-spacing:0px;word-spacing:0px;fill:#000000;fill-opacity:1;stroke:none;stroke-width:0.26458332"
       x="-47.144184"
       y="26.164333"
       id="text4012"><tspan
         sodipodi:role="line"
         id="tspan4010"
         x="-47.144184"
         y="26.164333"
         style="font-size:4.93888903px;stroke-width:0.26458332">headlight cover</tspan></text>
    <path
       style="fill:#ff0000;stroke-width:1.00821662"
       d="m -438.45625,36.503089 c -0.007,0 -0.0134,0.0065 -0.0134,0.01395 v 21.276739 h -0.0181 v -0.04392 c 0,-0.0085 -0.007,-0.01499 -0.0155,-0.01499 h -3.96927 c -0.008,0 -0.0155,0.0065 -0.0155,0.01499 v 14.521598 c 0,0.008 0.007,0.015 0.0155,0.015 h 2.24896 1.72031 0.0336 v 42.301814 h -0.007 v -0.0331 c 0,-0.008 -0.007,-0.0155 -0.015,-0.0155 h -3.96926 c -0.008,0 -0.0155,0.007 -0.0155,0.0155 v 14.52107 c 0,0.009 0.007,0.0155 0.0155,0.0155 h 3.96926 c 0.006,0 0.008,-0.006 0.0103,-0.0108 h 0.0114 v 21.43847 c 0,0.008 0.006,0.0134 0.0134,0.0134 h 36.20293 c 0.007,0 0.0134,-0.006 0.0134,-0.0134 v -21.42765 h 3.96514 c 0.009,0 0.0155,-0.007 0.0155,-0.0155 v -14.52108 c 0,-0.009 -0.007,-0.0155 -0.0155,-0.0155 h -3.96514 V 72.286436 h 3.95325 c 0.009,0 0.0155,-0.007 0.0155,-0.0155 V 57.749855 c 0,-0.0085 -0.007,-0.01499 -0.0155,-0.01499 h -3.95325 V 36.517041 c 0,-0.0075 -0.006,-0.01395 -0.0134,-0.01395 z m 17.95187,35.928557 a 2.97,2.97 0 0 1 2.97036,2.97036 2.97,2.97 0 0 1 -2.97036,2.96985 2.97,2.97 0 0 1 -2.96984,-2.96985 2.97,2.97 0 0 1 2.96984,-2.97036 z m -0.0139,50.505444 a 2.97,2.97 0 0 1 2.97036,2.96985 2.97,2.97 0 0 1 -2.97036,2.96984 2.97,2.97 0 0 1 -2.96984,-2.96984 2.97,2.97 0 0 1 2.96984,-2.96985 z"
       id="rect3760-3"
       inkscape:connector-curvature="0" />
  </g>
</svg>
