<?xml version="1.0" encoding="UTF-8" standalone="no"?>
<!-- Created with Inkscape (http://www.inkscape.org/) -->

<svg
   xmlns:dc="http://purl.org/dc/elements/1.1/"
   xmlns:cc="http://creativecommons.org/ns#"
   xmlns:rdf="http://www.w3.org/1999/02/22-rdf-syntax-ns#"
   xmlns:svg="http://www.w3.org/2000/svg"
   xmlns="http://www.w3.org/2000/svg"
   xmlns:sodipodi="http://sodipodi.sourceforge.net/DTD/sodipodi-0.dtd"
   xmlns:inkscape="http://www.inkscape.org/namespaces/inkscape"
   width="210mm"
   height="297mm"
   viewBox="0 0 210 297"
   version="1.1"
   id="svg1044"
   inkscape:version="0.92.4 (5da689c313, 2019-01-14)"
   sodipodi:docname="final_swivel_base.svg">
  <defs
     id="defs1038" />
  <sodipodi:namedview
     id="base"
     pagecolor="#ffffff"
     bordercolor="#666666"
     borderopacity="1.0"
     inkscape:pageopacity="0.0"
     inkscape:pageshadow="2"
     inkscape:zoom="0.35"
     inkscape:cx="121.04894"
     inkscape:cy="460.53235"
     inkscape:document-units="mm"
     inkscape:current-layer="layer1"
     showgrid="false"
     inkscape:window-width="1366"
     inkscape:window-height="705"
     inkscape:window-x="-8"
     inkscape:window-y="-8"
     inkscape:window-maximized="1" />
  <metadata
     id="metadata1041">
    <rdf:RDF>
      <cc:Work
         rdf:about="">
        <dc:format>image/svg+xml</dc:format>
        <dc:type
           rdf:resource="http://purl.org/dc/dcmitype/StillImage" />
        <dc:title></dc:title>
      </cc:Work>
    </rdf:RDF>
  </metadata>
  <g
     inkscape:label="Layer 1"
     inkscape:groupmode="layer"
     id="layer1">
    <path
       style="fill:#a0892c;stroke-width:0.03988744"
       d="M 38.553571,4.2203084 A 34.999996,34.999996 0 0 0 3.5536412,39.220242 34.999996,34.999996 0 0 0 38.553571,74.220172 34.999996,34.999996 0 0 0 73.553506,39.220242 34.999996,34.999996 0 0 0 38.553571,4.2203084 Z m -0.0651,7.0372996 a 1.9999997,1.9999997 0 0 1 2.00039,1.99988 1.9999997,1.9999997 0 0 1 -2.00039,1.99988 1.9999997,1.9999997 0 0 1 -1.999879,-1.99988 1.9999997,1.9999997 0 0 1 1.999879,-1.99988 z m 0.0021,13.887524 a 1.9999999,1.9999999 0 0 1 1.99988,1.99988 1.9999999,1.9999999 0 0 1 -1.99988,2.0004 1.9999999,1.9999999 0 0 1 -2.000401,-2.0004 1.9999999,1.9999999 0 0 1 2.000401,-1.99988 z m -8.031041,0.008 h 4.000281 v 4.00028 H 30.45953 Z m 11.99565,0 h 3.978576 c 0.006,0 0.0109,0.005 0.0109,0.0109 v 3.97857 c 0,0.006 -0.005,0.0109 -0.0109,0.0109 H 42.45518 c -0.006,0 -0.0109,-0.005 -0.0109,-0.0109 v -3.97857 c 0,-0.006 0.005,-0.0109 0.0109,-0.0109 z m 21.960946,12.22871 a 1.9999997,1.9999997 0 0 1 1.99987,1.99988 1.9999997,1.9999997 0 0 1 -1.99987,1.99987 1.9999997,1.9999997 0 0 1 -1.99988,-1.99987 1.9999997,1.9999997 0 0 1 1.99988,-1.99988 z m -51.928624,0.003 a 1.9999997,1.9999997 0 0 1 1.999879,2.0004 1.9999997,1.9999997 0 0 1 -1.999879,1.99988 1.9999997,1.9999997 0 0 1 -2.00039,-1.99988 1.9999997,1.9999997 0 0 1 2.00039,-2.0004 z m 29.957325,11.78734 h 3.999759 v 3.99976 h -3.999759 z m -11.973941,0.0114 h 3.999751 v 4.00027 h -3.999751 z m 8.01501,0.006 a 1.9999998,1.9999998 0 0 1 2.00039,2.0004 1.9999998,1.9999998 0 0 1 -2.00039,1.99987 1.9999998,1.9999998 0 0 1 -1.99988,-1.99987 1.9999998,1.9999998 0 0 1 1.99988,-2.0004 z m -0.0011,14.05496 a 1.9999997,1.9999997 0 0 1 1.999882,1.99987 1.9999997,1.9999997 0 0 1 -1.999882,1.99988 1.9999997,1.9999997 0 0 1 -1.99988,-1.99988 1.9999997,1.9999997 0 0 1 1.99988,-1.99987 z"
       id="path693-6-2"
       inkscape:connector-curvature="0" />
    <text
       xml:space="preserve"
       style="font-style:normal;font-weight:normal;font-size:3.52777767px;line-height:1.25;font-family:sans-serif;letter-spacing:0px;word-spacing:0px;fill:#000000;fill-opacity:1;stroke:none;stroke-width:0.26458332"
       x="26.551844"
       y="36.816917"
       id="text298"><tspan
         sodipodi:role="line"
         id="tspan296"
         x="26.551844"
         y="36.816917"
         style="stroke-width:0.26458332">4mm Arm stand</tspan><tspan
         sodipodi:role="line"
         x="26.551844"
         y="41.226639"
         style="stroke-width:0.26458332"
         id="tspan3938">BO motor base</tspan></text>
    <path
       style="fill:#a0892c;stroke-width:0.03988744"
       d="M 39.309524,81.327191 A 34.999996,34.999996 0 0 0 4.3095937,116.32764 34.999996,34.999996 0 0 0 39.309524,151.32757 34.999996,34.999996 0 0 0 74.309457,116.32764 34.999996,34.999996 0 0 0 39.309524,81.327191 Z m -0.04134,6.78564 a 2.0999998,2.0999998 0 0 1 2.100132,2.10013 2.0999998,2.0999998 0 0 1 -2.100133,2.09961 2.0999998,2.0999998 0 0 1 -2.100128,-2.09961 2.0999998,2.0999998 0 0 1 2.100129,-2.10013 z M 13.288375,114.24767 a 2.0999998,2.0999998 0 0 1 2.10013,2.10013 2.0999998,2.0999998 0 0 1 -2.10013,2.09961 2.0999998,2.0999998 0 0 1 -2.099614,-2.09961 2.0999998,2.0999998 0 0 1 2.099614,-2.10013 z m 51.959102,0.0372 a 2.0999999,2.0999999 0 0 1 2.10013,2.10013 2.0999999,2.0999999 0 0 1 -2.10013,2.09962 2.0999999,2.0999999 0 0 1 -2.10013,-2.09962 2.0999999,2.0999999 0 0 1 2.10013,-2.10013 z m -25.927616,0.82372 a 1.2099999,1.2099999 0 0 1 1.209747,1.20975 1.2099999,1.2099999 0 0 1 -1.209747,1.21026 1.2099999,1.2099999 0 0 1 -1.210262,-1.21026 1.2099999,1.2099999 0 0 1 1.210262,-1.20975 z m -0.0057,25.02225 a 2.0999998,2.0999998 0 0 1 2.10013,2.10013 2.0999998,2.0999998 0 0 1 -2.10013,2.09961 2.0999998,2.0999998 0 0 1 -2.099615,-2.09961 2.0999998,2.0999998 0 0 1 2.099615,-2.10013 z"
       id="path693-6"
       inkscape:connector-curvature="0" />
    <path
       style="fill:#a0892c;stroke-width:0.03988744"
       d="m 40.065478,160.70245 a 34.999996,34.999996 0 0 0 -34.9999319,34.99993 34.999996,34.999996 0 0 0 34.9999319,34.99993 34.999996,34.999996 0 0 0 34.99993,-34.99993 34.999996,34.999996 0 0 0 -34.99993,-34.99993 z m -0.0641,6.99906 a 1.9999999,1.9999999 0 0 1 1.99988,1.99988 1.9999999,1.9999999 0 0 1 -1.99988,2.00039 1.9999999,1.9999999 0 0 1 -2.00039,-2.00039 1.9999999,1.9999999 0 0 1 2.00039,-1.99988 z m 25.93175,26.14569 a 1.9999998,1.9999998 0 0 1 1.99988,2.0004 1.9999998,1.9999998 0 0 1 -1.99988,1.99987 1.9999998,1.9999998 0 0 1 -1.99988,-1.99987 1.9999998,1.9999998 0 0 1 1.99988,-2.0004 z m -51.934291,0.0114 a 1.9999998,1.9999998 0 0 1 2.00039,2.00039 1.9999998,1.9999998 0 0 1 -2.00039,1.99988 1.9999998,1.9999998 0 0 1 -1.99988,-1.99988 1.9999998,1.9999998 0 0 1 1.99988,-2.00039 z m 24.215571,0.0119 h 3.82096 c 0.43741,0 0.78961,0.3522 0.78961,0.78962 v 2.22105 c 0,0.43742 -0.3522,0.78962 -0.78961,0.78962 h -3.82096 c -0.43741,0 -0.78961,-0.3522 -0.78961,-0.78962 v -2.22105 c 0,-0.43742 0.3522,-0.78962 0.78961,-0.78962 z m 1.81281,25.85114 a 1.9999998,1.9999998 0 0 1 1.99988,1.99988 1.9999998,1.9999998 0 0 1 -1.99988,1.99988 1.9999998,1.9999998 0 0 1 -2.00039,-1.99988 1.9999998,1.9999998 0 0 1 2.00039,-1.99988 z"
       id="path693-8"
       inkscape:connector-curvature="0" />
    <path
       style="fill:#a0892c;stroke-width:0.38177061"
       d="m 102.61146,8.2677938 c -5.28225,0 -9.53482,3.9218402 -9.53482,8.7932602 v 0.2067 6.20686 8.79326 46.00029 h 4.02353 v 3.99407 h 3.99975 v -3.99407 h 2.45102 v -11.01586 h -1.44591 v -2.20038 h 1.44591 v -3.96669 h 2.99981 v 3.96669 h 1.55391 v 2.20038 h -1.55391 v 11.01586 h 2.52233 v 3.99976 h 3.99975 v -3.99976 h 4.0039 3.99975 v -4.00027 h -3.99975 v -42.00002 h 30.21675 26.24853 c 5.28225,0 9.53482,-3.92184 9.53482,-8.79326 v -6.41356 c 0,-4.87142 -4.25257,-8.7932602 -9.53482,-8.7932602 z m 44.11048,2.0262302 a 1.605,1.605 0 0 1 1.60456,1.60455 1.605,1.605 0 0 1 -1.60456,1.60507 1.605,1.605 0 0 1 -1.60507,-1.60507 1.605,1.605 0 0 1 1.60507,-1.60455 z m -29.76562,2.32027 h 25.00002 v 12.99972 h -25.00002 z m 50.0326,3.93775 a 4.0100001,4.0100001 0 0 1 4.0101,4.01009 4.0100001,4.0100001 0 0 1 -4.0101,4.01009 4.0100001,4.0100001 0 0 1 -4.01009,-4.01009 4.0100001,4.0100001 0 0 1 4.01009,-4.01009 z m -11.27424,2.01176 a 1.9199999,1.9199999 0 0 1 1.92029,1.9203 1.9199999,1.9199999 0 0 1 -1.92029,1.91978 1.9199999,1.9199999 0 0 1 -1.91978,-1.91978 1.9199999,1.9199999 0 0 1 1.91978,-1.9203 z m -9.03976,8.57157 a 1.605,1.605 0 0 1 1.60507,1.60507 1.605,1.605 0 0 1 -1.60507,1.60507 1.605,1.605 0 0 1 -1.60507,-1.60507 1.605,1.605 0 0 1 1.60507,-1.60507 z m -57.60889,47.13252 v 4.00027 h 3.99976 v -4.00027 z"
       id="rect441-2"
       inkscape:connector-curvature="0" />
    <path
       style="fill:#a0892c;stroke-width:0.38177061"
       d="m 100.3436,105.78565 c -5.28225,0 -9.53482,3.92184 -9.53482,8.79326 v 0.20671 6.20685 8.79326 46.00029 h 4.02353 v 3.99407 h 3.99975 v -3.99407 h 2.45102 v -11.01586 h -1.44591 v -2.20039 h 1.44591 v -3.96668 h 2.99981 v 3.96668 h 1.55391 v 2.20039 h -1.55391 v 11.01586 h 2.52233 v 3.99976 h 3.99975 v -3.99976 h 4.0039 3.99975 v -4.00027 h -3.99975 v -42.00002 h 30.21675 26.24853 c 5.28225,0 9.53482,-3.92184 9.53482,-8.79326 v -6.41356 c 0,-4.87142 -4.25257,-8.79326 -9.53482,-8.79326 z m 44.11048,2.02623 a 1.605,1.605 0 0 1 1.60456,1.60456 1.605,1.605 0 0 1 -1.60456,1.60506 1.605,1.605 0 0 1 -1.60507,-1.60506 1.605,1.605 0 0 1 1.60507,-1.60456 z m -29.76562,2.32027 h 25.00002 v 12.99972 h -25.00002 z m 50.0326,3.93775 a 4.0100001,4.0100001 0 0 1 4.0101,4.01009 4.0100001,4.0100001 0 0 1 -4.0101,4.01008 4.0100001,4.0100001 0 0 1 -4.01009,-4.01008 4.0100001,4.0100001 0 0 1 4.01009,-4.01009 z m -11.27424,2.01176 a 1.9199999,1.9199999 0 0 1 1.92029,1.9203 1.9199999,1.9199999 0 0 1 -1.92029,1.91978 1.9199999,1.9199999 0 0 1 -1.91978,-1.91978 1.9199999,1.9199999 0 0 1 1.91978,-1.9203 z m -9.03976,8.57157 a 1.605,1.605 0 0 1 1.60507,1.60507 1.605,1.605 0 0 1 -1.60507,1.60507 1.605,1.605 0 0 1 -1.60507,-1.60507 1.605,1.605 0 0 1 1.60507,-1.60507 z m -57.60889,47.13252 v 4.00027 h 3.99976 v -4.00027 z"
       id="rect441-2-2"
       inkscape:connector-curvature="0" />
    <path
       style="fill:#a0892c;stroke-width:0.20576088"
       d="m 139.89674,167.91667 c -2.49847,0 -4.5098,2.01134 -4.5098,4.50981 v 100.98039 c 0,2.49846 2.01133,4.5098 4.5098,4.5098 h 8.98033 c 2.49847,0 4.5098,-2.01134 4.5098,-4.5098 V 172.42648 c 0,-2.49847 -2.01133,-4.50981 -4.5098,-4.50981 z m 2.4474,18.98334 h 3.82095 c 0.43742,0 0.78962,0.3522 0.78962,0.78962 v 2.22105 c 0,0.43742 -0.3522,0.78962 -0.78962,0.78962 h -3.82095 c -0.43742,0 -0.78962,-0.3522 -0.78962,-0.78962 v -2.22105 c 0,-0.43742 0.3522,-0.78962 0.78962,-0.78962 z"
       id="rect731-9-7"
       inkscape:connector-curvature="0"
       inkscape:transform-center-x="-19.654762"
       inkscape:transform-center-y="17.386905" />
    <path
       style="fill:#a0892c;stroke-width:0.20576088"
       d="m 176.93841,170.18452 c -2.49847,0 -4.5098,2.01134 -4.5098,4.50981 v 100.98039 c 0,2.49846 2.01133,4.5098 4.5098,4.5098 h 8.98033 c 2.49847,0 4.5098,-2.01134 4.5098,-4.5098 V 174.69433 c 0,-2.49847 -2.01133,-4.50981 -4.5098,-4.50981 z m 2.4474,18.98334 h 3.82095 c 0.43742,0 0.78962,0.3522 0.78962,0.78962 v 2.22105 c 0,0.43742 -0.3522,0.78962 -0.78962,0.78962 h -3.82095 c -0.43742,0 -0.78962,-0.3522 -0.78962,-0.78962 v -2.22105 c 0,-0.43742 0.3522,-0.78962 0.78962,-0.78962 z"
       id="rect731-9"
       inkscape:connector-curvature="0"
       inkscape:transform-center-x="-2.2678571"
       inkscape:transform-center-y="18.89881" />
    <text
       xml:space="preserve"
       style="font-style:normal;font-weight:normal;font-size:3.52777767px;line-height:1.25;font-family:sans-serif;letter-spacing:0px;word-spacing:0px;fill:#000000;fill-opacity:1;stroke:none;stroke-width:0.26458332"
       x="25.320839"
       y="109.29435"
       id="text128"><tspan
         sodipodi:role="line"
         id="tspan126"
         x="25.320839"
         y="109.29435"
         style="font-size:3.52777767px;stroke-width:0.26458332">2mm motor screw</tspan></text>
    <text
       xml:space="preserve"
       style="font-style:normal;font-weight:normal;font-size:3.52777767px;line-height:1.25;font-family:sans-serif;letter-spacing:0px;word-spacing:0px;fill:#000000;fill-opacity:1;stroke:none;stroke-width:0.26458332"
       x="23.266823"
       y="186.4325"
       id="text124"><tspan
         sodipodi:role="line"
         id="tspan122"
         x="23.266823"
         y="186.4325"
         style="font-size:3.52777767px;stroke-width:0.26458332">2mm motor base</tspan></text>
    <text
       xml:space="preserve"
       style="font-style:normal;font-weight:normal;font-size:3.52777767px;line-height:1.25;font-family:sans-serif;letter-spacing:0px;word-spacing:0px;fill:#000000;fill-opacity:1;stroke:none;stroke-width:0.26458332"
       x="95.838249"
       y="41.289635"
       id="text612"><tspan
         sodipodi:role="line"
         id="tspan610"
         x="95.838249"
         y="41.289635"
         style="stroke-width:0.26458332">base arm 1</tspan></text>
    <text
       xml:space="preserve"
       style="font-style:normal;font-weight:normal;font-size:3.52777767px;line-height:1.25;font-family:sans-serif;letter-spacing:0px;word-spacing:0px;fill:#000000;fill-opacity:1;stroke:none;stroke-width:0.26458332"
       x="92.363258"
       y="139.94141"
       id="text608"><tspan
         sodipodi:role="line"
         id="tspan606"
         x="92.363258"
         y="139.94141"
         style="stroke-width:0.26458332">base arm 2</tspan></text>
    <text
       xml:space="preserve"
       style="font-style:normal;font-weight:normal;font-size:3.52777767px;line-height:1.25;font-family:sans-serif;letter-spacing:0px;word-spacing:0px;fill:#000000;fill-opacity:1;stroke:none;stroke-width:0.26458332"
       x="139.13914"
       y="218.2455"
       id="text910"><tspan
         sodipodi:role="line"
         id="tspan908"
         x="139.13914"
         y="218.2455"
         style="stroke-width:0.26458332">probe</tspan><tspan
         sodipodi:role="line"
         x="139.13914"
         y="222.65523"
         style="stroke-width:0.26458332"
         id="tspan912">arm 2</tspan></text>
    <flowRoot
       transform="matrix(0.26458333,0,0,0.26458333,29.183505,-24.029221)"
       xml:space="preserve"
       id="flowRoot896"
       style="font-style:normal;font-weight:normal;font-size:13.33333302px;line-height:1.25;font-family:sans-serif;letter-spacing:0px;word-spacing:0px;fill:#000000;fill-opacity:1;stroke:none"><flowRegion
         id="flowRegion898"><rect
           id="rect900"
           width="42"
           height="43"
           x="553"
           y="923.51971" /></flowRegion><flowPara
         id="flowPara902">probe arm 1</flowPara></flowRoot>    <path
       inkscape:connector-curvature="0"
       style="fill:#ffdd55;stroke-width:0.2477168"
       d="m 32.506209,252.0923 a 9,9 0 0 0 -9.000483,8.99996 9,9 0 0 0 9.000483,8.99997 9,9 0 0 0 8.99997,-8.99997 9,9 0 0 0 -8.99997,-8.99996 z m 0,7.88168 a 1.115,1.115 0 0 1 1.11518,1.11518 1.115,1.115 0 0 1 -1.11518,1.11466 1.115,1.115 0 0 1 -1.11517,-1.11466 1.115,1.115 0 0 1 1.11517,-1.11518 z"
       id="path80" />
    <path
       inkscape:connector-curvature="0"
       style="fill:#ffdd55;stroke-width:0.2477168"
       d="m 82.399079,253.22623 a 8.9999997,8.9999997 0 0 0 -9.000495,8.99995 8.9999997,8.9999997 0 0 0 9.000495,8.99997 8.9999997,8.9999997 0 0 0 8.99996,-8.99997 8.9999997,8.9999997 0 0 0 -8.99996,-8.99995 z m 0,7.88167 a 1.115,1.115 0 0 1 1.11517,1.11518 1.115,1.115 0 0 1 -1.11517,1.11466 1.115,1.115 0 0 1 -1.11518,-1.11466 1.115,1.115 0 0 1 1.11518,-1.11518 z"
       id="path80-1" />
    <text
       xml:space="preserve"
       style="font-style:normal;font-weight:normal;font-size:1.41111112px;line-height:0;font-family:sans-serif;letter-spacing:0px;word-spacing:0px;fill:#000000;fill-opacity:1;stroke:none;stroke-width:0.26458332"
       x="26.436728"
       y="265.01941"
       id="text120"><tspan
         sodipodi:role="line"
         id="tspan118"
         x="26.436728"
         y="265.01941"
         style="font-size:1.41111112px;line-height:0;stroke-width:0.26458332">2mm thick disc 1</tspan></text>
    <text
       xml:space="preserve"
       style="font-style:normal;font-weight:normal;font-size:1.41111112px;line-height:1.25;font-family:sans-serif;letter-spacing:0px;word-spacing:0px;fill:#000000;fill-opacity:1;stroke:none;stroke-width:0.26458332"
       x="77.171425"
       y="265.01941"
       id="text125"><tspan
         sodipodi:role="line"
         id="tspan123"
         x="77.171425"
         y="265.01941"
         style="stroke-width:0.26458332">motor screw disc 2</tspan></text>
  </g>
</svg>
