<?xml version="1.0" encoding="UTF-8" standalone="no"?>
<!-- Created with Inkscape (http://www.inkscape.org/) -->

<svg
   xmlns:dc="http://purl.org/dc/elements/1.1/"
   xmlns:cc="http://creativecommons.org/ns#"
   xmlns:rdf="http://www.w3.org/1999/02/22-rdf-syntax-ns#"
   xmlns:svg="http://www.w3.org/2000/svg"
   xmlns="http://www.w3.org/2000/svg"
   xmlns:sodipodi="http://sodipodi.sourceforge.net/DTD/sodipodi-0.dtd"
   xmlns:inkscape="http://www.inkscape.org/namespaces/inkscape"
   width="210mm"
   height="297mm"
   viewBox="0 0 210 297"
   version="1.1"
   id="svg1415"
   inkscape:version="0.92.4 (5da689c313, 2019-01-14)"
   sodipodi:docname="final_explr_base.svg">
  <defs
     id="defs1409" />
  <sodipodi:namedview
     id="base"
     pagecolor="#ffffff"
     bordercolor="#666666"
     borderopacity="1.0"
     inkscape:pageopacity="0.0"
     inkscape:pageshadow="2"
     inkscape:zoom="0.49497475"
     inkscape:cx="459.29397"
     inkscape:cy="516.11019"
     inkscape:document-units="mm"
     inkscape:current-layer="layer1"
     showgrid="false"
     inkscape:window-width="1366"
     inkscape:window-height="705"
     inkscape:window-x="-8"
     inkscape:window-y="-8"
     inkscape:window-maximized="1" />
  <metadata
     id="metadata1412">
    <rdf:RDF>
      <cc:Work
         rdf:about="">
        <dc:format>image/svg+xml</dc:format>
        <dc:type
           rdf:resource="http://purl.org/dc/dcmitype/StillImage" />
        <dc:title></dc:title>
      </cc:Work>
    </rdf:RDF>
  </metadata>
  <g
     inkscape:label="Layer 1"
     inkscape:groupmode="layer"
     id="layer1">
    <path
       inkscape:connector-curvature="0"
       style="fill:#786721;stroke-width:0.24727698"
       d="M 13.979094,0.07050471 A 16.615373,57.225443 0 0 0 -0.81328463,56.879965 16.615373,57.225443 0 0 0 13.987362,113.73799 v 0.36742 h 22.626008 15.00012 30.0576 15.000106 30.256564 15.00012 21.16666 0.1695 v -0.0842 a 16.615373,57.225443 0 0 0 15.92254,-57.141215 v -5.3e-4 A 16.615373,57.225443 0 0 0 164.22988,0.07050471 Z M 37.68204,2.3902647 H 52.23412 V 5.9223445 H 37.68204 Z m 44.97917,0 H 97.213286 V 5.9223445 H 82.66121 Z m 44.97917,0.0274 h 14.55208 V 5.9502645 H 127.64038 Z M 13.984261,21.306935 h 3.969269 c 0.008,0 0.0155,0.007 0.0155,0.015 v 14.5216 c 0,0.008 -0.007,0.015 -0.0155,0.015 h -3.969269 c -0.0085,0 -0.01499,-0.006 -0.01499,-0.015 v -14.5216 c 0,-0.008 0.0065,-0.015 0.01499,-0.015 z m 146.283069,0 h 3.96926 c 0.008,0 0.0155,0.007 0.0155,0.015 v 14.5216 c 0,0.008 -0.007,0.015 -0.0155,0.015 h -3.96926 c -0.008,0 -0.0155,-0.006 -0.0155,-0.015 v -14.5216 c 0,-0.008 0.007,-0.015 0.0155,-0.015 z m -50.56074,21.47931 h 5.3e-4 a 1.6049998,1.6049998 0 0 1 1.60403,1.58699 1.6049998,1.6049998 0 0 1 0.001,0.0181 1.6049998,1.6049998 0 0 1 0,0.005 1.6049999,1.6049999 0 0 1 0.003,0.0904 1.6049999,1.6049999 0 0 1 -1.60507,1.60507 1.6049999,1.6049999 0 0 1 -1.60507,-1.60507 1.6049999,1.6049999 0 0 1 5.3e-4,-0.016 1.6049998,1.6049998 0 0 1 -0.004,-0.0796 1.6049998,1.6049998 0 0 1 1.60507,-1.60507 z m 4.71909,4.7315 h 25.00003 v 12.99972 h -25.00003 z m -25.03258,1.04179 a 4.0100001,4.0100001 0 0 1 3.998716,3.78375 4.0100001,4.0100001 0 0 1 0.0108,0.21291 4.0100001,4.0100001 0 0 1 5.3e-4,0.0134 4.0100001,4.0100001 0 0 1 0,0.003 4.0100001,4.0100001 0 0 1 0.003,0.0925 4.0100001,4.0100001 0 0 1 -4.010086,4.01009 4.0100001,4.0100001 0 0 1 -4.0101,-4.01009 4.0100001,4.0100001 0 0 1 0.001,-0.0171 4.0100001,4.0100001 0 0 1 -0.004,-0.0785 4.0100001,4.0100001 0 0 1 4.0101,-4.01009 z m 11.27425,2.16835 a 1.9199997,1.9199997 0 0 1 1.91719,1.87327 1.9199998,1.9199998 0 0 1 0.002,0.0357 1.9199997,1.9199997 0 0 1 5.3e-4,0.0109 1.9199998,1.9199998 0 0 1 0,0.003 1.9199998,1.9199998 0 0 1 0.003,0.093 1.9199998,1.9199998 0 0 1 -1.91978,1.92029 1.9199998,1.9199998 0 0 1 -1.920304,-1.92029 1.9199998,1.9199998 0 0 1 10e-4,-0.0176 1.9199997,1.9199997 0 0 1 -0.004,-0.078 1.9199997,1.9199997 0 0 1 1.920224,-1.91984 z m 8.99273,8.90023 a 1.6049998,1.6049998 0 0 1 1.60404,1.58698 1.6049998,1.6049998 0 0 1 10e-4,0.0181 1.6049998,1.6049998 0 0 1 0,0.005 1.6049999,1.6049999 0 0 1 0.003,0.0904 1.6049999,1.6049999 0 0 1 -1.60507,1.60455 1.6049999,1.6049999 0 0 1 -1.60455,-1.60455 1.6049999,1.6049999 0 0 1 0.001,-0.0181 1.6049998,1.6049998 0 0 1 -0.004,-0.0775 1.6049998,1.6049998 0 0 1 1.60455,-1.60507 z m -95.663933,18.48414 h 3.969263 c 0.009,0 0.0155,0.007 0.0155,0.0155 v 14.52108 c 0,0.009 -0.007,0.0155 -0.0155,0.0155 h -3.969263 c -0.0085,0 -0.0155,-0.007 -0.0155,-0.0155 v -14.52108 c 0,-0.009 0.007,-0.0155 0.0155,-0.0155 z m 146.283063,0 h 3.96927 c 0.008,0 0.015,0.007 0.015,0.0155 v 14.52108 c 0,0.009 -0.007,0.0155 -0.015,0.0155 h -3.96927 c -0.008,0 -0.0155,-0.007 -0.0155,-0.0155 v -14.52108 c 0,-0.009 0.007,-0.0155 0.0155,-0.0155 z M 37.68204,108.19569 h 14.55208 v 3.53209 H 37.68204 Z m 44.97917,0 h 14.552076 v 3.53209 H 82.66121 Z m 44.97917,0.0274 h 14.55208 v 3.5326 h -14.55208 z"
       id="path4087" />
    <path
       inkscape:connector-curvature="0"
       style="fill:#786721;stroke-width:0.24727698"
       d="M 16.392388,184.00409 A 16.615375,57.225443 0 0 0 1.6000088,240.81354 16.615375,57.225443 0 0 0 16.400656,297.67156 v 0.36742 h 22.62601 15.000118 30.057591 15.000119 30.256546 15.00012 21.16666 0.1695 v -0.0842 a 16.615375,57.225443 0 0 0 15.92254,-57.14123 v -5.3e-4 a 16.615375,57.225443 0 0 0 -14.9567,-56.80893 z m 23.702946,2.31975 h 14.552083 v 3.53208 H 40.095334 Z m 44.979171,0 h 14.552079 v 3.53208 H 85.074505 Z m 44.979155,0.0274 h 14.55208 v 3.5326 H 130.05366 Z M 16.348463,205.17075 h 3.969783 c 0.0085,0 0.01499,0.007 0.01499,0.015 v 14.5216 c 0,0.008 -0.0065,0.0155 -0.01499,0.0155 h -3.969783 c -0.0085,-1e-5 -0.01499,-0.007 -0.01499,-0.0155 v -14.52159 c 0,-0.008 0.0065,-0.015 0.01499,-0.015 z m 146.283057,0 h 3.96978 c 0.008,0 0.015,0.007 0.015,0.015 v 14.5216 c 0,0.008 -0.007,0.0155 -0.015,0.0155 h -3.96978 c -0.008,-1e-5 -0.015,-0.007 -0.015,-0.0155 v -14.52159 c 0,-0.008 0.007,-0.015 0.015,-0.015 z m -70.889205,27.2526 a 3.9999999,3.9999999 0 0 1 3.99975,3.99976 3.9999999,3.9999999 0 0 1 -3.99975,4.00027 3.9999999,3.9999999 0 0 1 -4.00028,-4.00027 3.9999999,3.9999999 0 0 1 4.00028,-3.99976 z m -75.381966,29.55272 h 3.969783 c 0.0085,0 0.01499,0.006 0.01499,0.015 v 14.52158 c 0,0.008 -0.0065,0.0156 -0.01499,0.0156 h -3.969783 c -0.0085,0 -0.01499,-0.007 -0.01499,-0.0156 v -14.52161 c 0,-0.008 0.0065,-0.015 0.01499,-0.015 z m 146.283051,0 h 3.96978 c 0.008,0 0.015,0.006 0.015,0.015 v 14.52158 c 0,0.008 -0.007,0.0156 -0.015,0.0156 h -3.96978 c -0.008,0 -0.015,-0.007 -0.015,-0.0156 v -14.52161 c 0,-0.008 0.007,-0.015 0.015,-0.015 z M 40.095334,292.12928 h 14.552083 v 3.53208 H 40.095334 Z m 44.979171,0 h 14.552079 v 3.53208 H 85.074505 Z m 44.979155,0.0274 h 14.55208 v 3.53261 h -14.55208 z"
       id="path4087-4" />
    <path
       style="fill:#786721;stroke-width:0.26492769"
       d="m 24.585444,126.95543 v 3.39411 H 1.2101326 v 35.99987 H 24.585444 v 3.75894 h 14.55208 v -3.75894 h 30.42709 v 3.75894 h 14.552057 v -3.75894 h 30.426979 v 3.72432 h 14.5526 v -3.72432 h 21.61367 v -35.99987 h -21.61367 v -3.35949 h -14.5526 v 3.35949 H 84.116671 v -3.39411 H 69.564614 v 3.39411 h -30.42709 v -3.39411 z m 94.780136,11.39569 a 1.6049999,1.6049999 0 0 1 1.60507,1.60507 1.6049999,1.6049999 0 0 1 -1.60507,1.60507 1.6049999,1.6049999 0 0 1 -1.60507,-1.60507 1.6049999,1.6049999 0 0 1 1.60507,-1.60507 z m -87.592456,0.23151 a 1.605,1.605 0 0 1 0.41547,0.0553 1.605,1.605 0 0 1 1.35186,1.58285 1.605,1.605 0 0 1 -1.60507,1.60507 1.605,1.605 0 0 1 -0.39481,-0.0517 1.605,1.605 0 0 1 -1.37252,-1.58646 1.605,1.605 0 0 1 1.60507,-1.60507 z m 4.71857,4.73149 h 25.00002 v 12.99972 h -25.00002 z m 53.445777,0 h 24.999959 v 12.99972 H 89.937471 Z m 49.742119,0.81029 a 4.0100001,4.0100001 0 0 1 4.01009,4.01009 4.0100001,4.0100001 0 0 1 -4.01009,4.01009 4.0100001,4.0100001 0 0 1 -4.01009,-4.01009 4.0100001,4.0100001 0 0 1 4.01009,-4.01009 z m -128.220477,0.23151 a 4.0100001,4.0100001 0 0 1 0.856279,0.0977 4.0100001,4.0100001 0 0 1 3.316076,3.94549 4.0100001,4.0100001 0 0 1 -4.010091,4.01009 4.0100001,4.0100001 0 0 1 -0.839224,-0.091 4.0100001,4.0100001 0 0 1 -3.3331294,-3.95221 4.0100001,4.0100001 0 0 1 4.0100894,-4.01009 z m 116.946227,1.93683 a 1.9199998,1.9199998 0 0 1 1.9203,1.91978 1.9199998,1.9199998 0 0 1 -1.9203,1.9203 1.9199998,1.9199998 0 0 1 -1.91978,-1.9203 1.9199998,1.9199998 0 0 1 1.91978,-1.91978 z m -105.67198,0.23151 a 1.9199999,1.9199999 0 0 1 0.472324,0.0605 1.9199999,1.9199999 0 0 1 1.60972,1.89239 1.9199999,1.9199999 0 0 1 -1.91978,1.9203 1.9199999,1.9199999 0 0 1 -0.453202,-0.0563 1.9199999,1.9199999 0 0 1 -1.629357,-1.89704 1.9199999,1.9199999 0 0 1 1.920295,-1.91978 z m 96.67925,8.66872 a 1.6049999,1.6049999 0 0 1 1.60455,1.60507 1.6049999,1.6049999 0 0 1 -1.60455,1.60455 1.6049999,1.6049999 0 0 1 -1.60507,-1.60455 1.6049999,1.6049999 0 0 1 1.60507,-1.60507 z m -87.686516,0.23151 a 1.605,1.605 0 0 1 0.41548,0.0553 1.605,1.605 0 0 1 1.35185,1.58285 1.605,1.605 0 0 1 -1.60507,1.60455 1.605,1.605 0 0 1 -0.39584,-0.0517 1.605,1.605 0 0 1 -1.37097,-1.58594 1.605,1.605 0 0 1 1.60455,-1.60508 z"
       id="rect3887"
       inkscape:connector-curvature="0" />
    <path
       inkscape:connector-curvature="0"
       style="fill:#786721;stroke-width:0.26492769"
       d="m 175.66845,191.75469 h 3.39411 v 23.37532 h 35.99987 v -23.37532 h 3.75894 V 177.2026 h -3.75894 v -30.42708 h 3.75894 v -14.55208 h -3.75894 v -30.42708 h 3.72432 V 87.243762 h -3.72432 v -21.61367 h -35.99987 v 21.61367 h -3.35949 v 14.552598 h 3.35949 v 30.42708 h -3.39411 v 14.55208 h 3.39411 v 30.42708 h -3.39411 z m 11.39569,-94.780258 a 1.6049999,1.6049999 0 0 1 1.60507,-1.60507 1.6049999,1.6049999 0 0 1 1.60507,1.60507 1.6049999,1.6049999 0 0 1 -1.60507,1.60507 1.6049999,1.6049999 0 0 1 -1.60507,-1.60507 z m 0.23151,87.592578 a 1.605,1.605 0 0 1 0.0553,-0.41547 1.605,1.605 0 0 1 1.58285,-1.35187 1.605,1.605 0 0 1 1.60507,1.60508 1.605,1.605 0 0 1 -0.0517,0.39481 1.605,1.605 0 0 1 -1.58647,1.37252 1.605,1.605 0 0 1 -1.60507,-1.60507 z m 4.73149,-4.71858 v -25.00002 h 12.99972 v 25.00002 z m 0,-53.44583 v -25.00002 h 12.99972 v 25.00002 z m 0.81029,-49.742168 a 4.0100001,4.0100001 0 0 1 4.01009,-4.0101 4.0100001,4.0100001 0 0 1 4.01009,4.0101 4.0100001,4.0100001 0 0 1 -4.01009,4.01009 4.0100001,4.0100001 0 0 1 -4.01009,-4.01009 z m 0.23151,128.220588 a 4.0100001,4.0100001 0 0 1 0.0977,-0.85628 4.0100001,4.0100001 0 0 1 3.94549,-3.31607 4.0100001,4.0100001 0 0 1 4.0101,4.01009 4.0100001,4.0100001 0 0 1 -0.0909,0.83922 4.0100001,4.0100001 0 0 1 -3.95222,3.33313 4.0100001,4.0100001 0 0 1 -4.01009,-4.01009 z m 1.93683,-116.946348 a 1.9199998,1.9199998 0 0 1 1.91978,-1.9203 1.9199998,1.9199998 0 0 1 1.9203,1.9203 1.9199998,1.9199998 0 0 1 -1.9203,1.91978 1.9199998,1.9199998 0 0 1 -1.91978,-1.91978 z m 0.23151,105.672098 a 1.9199999,1.9199999 0 0 1 0.0605,-0.47232 1.9199999,1.9199999 0 0 1 1.89239,-1.60972 1.9199999,1.9199999 0 0 1 1.9203,1.91978 1.9199999,1.9199999 0 0 1 -0.0563,0.4532 1.9199999,1.9199999 0 0 1 -1.89705,1.62936 1.9199999,1.9199999 0 0 1 -1.91978,-1.9203 z M 203.906,96.927412 a 1.6049999,1.6049999 0 0 1 1.60507,-1.60456 1.6049999,1.6049999 0 0 1 1.60456,1.60456 1.6049999,1.6049999 0 0 1 -1.60456,1.60506 1.6049999,1.6049999 0 0 1 -1.60507,-1.60506 z m 0.23151,87.686628 a 1.605,1.605 0 0 1 0.0553,-0.41548 1.605,1.605 0 0 1 1.58285,-1.35186 1.605,1.605 0 0 1 1.60455,1.60508 1.605,1.605 0 0 1 -0.0517,0.39584 1.605,1.605 0 0 1 -1.58595,1.37097 1.605,1.605 0 0 1 -1.60507,-1.60455 z"
       id="rect3887-68" />
    <path
       style="fill:#786721;stroke-width:1.00821662"
       d="m -58.186484,11.396426 v 18.97558 h -0.0181 v -0.0439 c 0,-0.008 -0.007,-0.015 -0.0155,-0.015 h -3.96926 c -0.008,0 -0.0155,0.007 -0.0155,0.015 v 14.52159 c 0,0.008 0.007,0.015 0.0155,0.015 h 2.24895 1.72031 0.0336 v 42.30181 h -0.007 v -0.0331 c 0,-0.008 -0.006,-0.0155 -0.015,-0.0155 h -3.96926 c -0.008,0 -0.0155,0.007 -0.0155,0.0155 v 14.521084 c 0,0.008 0.007,0.0155 0.0155,0.0155 h 3.96926 c 0.006,0 0.008,-0.006 0.0103,-0.0109 h 0.0114 v 19.10268 h 36.22981 v -19.09179 h 3.96514 c 0.009,0 0.0155,-0.007 0.0155,-0.0155 V 87.133406 c 0,-0.008 -0.007,-0.0155 -0.0155,-0.0155 h -3.96514 v -42.25323 h 3.95325 c 0.009,0 0.0155,-0.007 0.0155,-0.0155 v -14.52108 c 0,-0.008 -0.007,-0.015 -0.0155,-0.015 h -3.95325 v -18.91667 z m 17.96531,33.61345 a 2.97,2.97 0 0 1 2.97036,2.97036 2.97,2.97 0 0 1 -2.97036,2.96984 2.97,2.97 0 0 1 -2.96984,-2.96984 2.97,2.97 0 0 1 2.96984,-2.97036 z m -0.0139,50.50544 a 2.97,2.97 0 0 1 2.97036,2.96985 2.97,2.97 0 0 1 -2.97036,2.969844 2.97,2.97 0 0 1 -2.96984,-2.969844 2.97,2.97 0 0 1 2.96984,-2.96985 z"
       id="rect3760"
       inkscape:connector-curvature="0" />
    <path
       style="fill:#786721;stroke-width:1.00821769"
       d="m -54.97913,143.67508 v 18.64434 h -0.0227 c -0.003,-0.005 -0.005,-0.0103 -0.0109,-0.0103 h -3.96926 c -0.008,0 -0.0155,0.007 -0.0155,0.015 v 14.52159 c 0,0.008 0.007,0.015 0.0155,0.015 h 3.96927 c 0.008,0 0.0155,-0.006 0.0155,-0.015 v -0.0336 h 0.0181 v 42.30233 h -0.0217 -1.46967 -2.49959 c -0.008,0 -0.0155,0.007 -0.0155,0.0155 v 14.52108 c 0,0.009 0.007,0.0155 0.0155,0.0155 h 3.96926 c 0.008,0 0.015,-0.007 0.015,-0.0155 v -0.0439 h 0.007 v 18.93838 h 36.22933 v -18.87895 h 3.96512 c 0.008,0 0.0155,-0.007 0.0155,-0.0155 v -14.52111 c 0,-0.008 -0.007,-0.0155 -0.0155,-0.0155 h -3.96512 v -42.25375 h 3.95323 c 0.008,0 0.0155,-0.006 0.0155,-0.015 v -14.52158 c 0,-0.008 -0.007,-0.015 -0.0155,-0.015 h -3.95323 v -18.634 z"
       id="rect3760-4"
       inkscape:connector-curvature="0" />
    <flowRoot
       xml:space="preserve"
       id="flowRoot4142"
       style="font-style:normal;font-weight:normal;font-size:40px;line-height:1.25;font-family:sans-serif;letter-spacing:0px;word-spacing:0px;fill:#000000;fill-opacity:1;stroke:none"
       transform="matrix(-0.26458333,0,0,-0.26458333,172.41569,247.97802)"><flowRegion
         id="flowRegion4144"><rect
           id="rect4146"
           width="143.44167"
           height="54.548252"
           x="220.21326"
           y="623.50427" /></flowRegion><flowPara
         id="flowPara4148">Swivel motor</flowPara></flowRoot>    <flowRoot
       xml:space="preserve"
       id="flowRoot4126"
       style="font-style:normal;font-weight:normal;font-size:40px;line-height:1.25;font-family:sans-serif;letter-spacing:0px;word-spacing:0px;fill:#000000;fill-opacity:1;stroke:none"
       transform="matrix(0,0.26458333,-0.26458333,0,312.42517,-18.755037)"><flowRegion
         id="flowRegion4128"><rect
           id="rect4130"
           width="163.64471"
           height="62.629459"
           x="250.51784"
           y="981.09827" /></flowRegion><flowPara
         id="flowPara4132">Top</flowPara></flowRoot>    <text
       xml:space="preserve"
       style="font-style:normal;font-weight:normal;font-size:4.93888855px;line-height:1.25;font-family:sans-serif;letter-spacing:0px;word-spacing:0px;fill:#000000;fill-opacity:1;stroke:none;stroke-width:0.26458332"
       x="53.698223"
       y="33.973038"
       id="text4012"
       transform="rotate(90)"><tspan
         sodipodi:role="line"
         id="tspan4010"
         x="53.698223"
         y="33.973038"
         style="font-size:4.93888855px;stroke-width:0.26458332">headlight cover</tspan></text>
    <text
       xml:space="preserve"
       style="font-style:normal;font-weight:normal;font-size:4.93888903px;line-height:1.25;font-family:sans-serif;letter-spacing:0px;word-spacing:0px;fill:#000000;fill-opacity:1;stroke:none;stroke-width:0.30089384"
       x="211.67111"
       y="27.329269"
       id="text3964"
       transform="matrix(0,0.8793245,-1.1372366,0,0,0)"><tspan
         sodipodi:role="line"
         id="tspan3962"
         x="211.67111"
         y="27.329269"
         style="font-size:4.93888903px;stroke-width:0.30089384">back wire cover</tspan></text>
  </g>
</svg>
