<?xml version="1.0" encoding="UTF-8" standalone="no"?>
<!-- Created with Inkscape (http://www.inkscape.org/) -->

<svg
   xmlns:dc="http://purl.org/dc/elements/1.1/"
   xmlns:cc="http://creativecommons.org/ns#"
   xmlns:rdf="http://www.w3.org/1999/02/22-rdf-syntax-ns#"
   xmlns:svg="http://www.w3.org/2000/svg"
   xmlns="http://www.w3.org/2000/svg"
   xmlns:sodipodi="http://sodipodi.sourceforge.net/DTD/sodipodi-0.dtd"
   xmlns:inkscape="http://www.inkscape.org/namespaces/inkscape"
   width="210mm"
   height="297mm"
   viewBox="0 0 210 297"
   version="1.1"
   id="svg1641"
   inkscape:version="0.92.4 (5da689c313, 2019-01-14)"
   sodipodi:docname="final_remote.svg">
  <defs
     id="defs1635" />
  <sodipodi:namedview
     id="base"
     pagecolor="#ffffff"
     bordercolor="#666666"
     borderopacity="1.0"
     inkscape:pageopacity="0.0"
     inkscape:pageshadow="2"
     inkscape:zoom="0.35"
     inkscape:cx="400"
     inkscape:cy="560"
     inkscape:document-units="mm"
     inkscape:current-layer="layer1"
     showgrid="false"
     inkscape:window-width="1366"
     inkscape:window-height="705"
     inkscape:window-x="-8"
     inkscape:window-y="-8"
     inkscape:window-maximized="1" />
  <metadata
     id="metadata1638">
    <rdf:RDF>
      <cc:Work
         rdf:about="">
        <dc:format>image/svg+xml</dc:format>
        <dc:type
           rdf:resource="http://purl.org/dc/dcmitype/StillImage" />
        <dc:title></dc:title>
      </cc:Work>
    </rdf:RDF>
  </metadata>
  <g
     inkscape:label="Layer 1"
     inkscape:groupmode="layer"
     id="layer1">
    <path
       inkscape:connector-curvature="0"
       style="fill:#786721;stroke-width:0.34477153"
       d="m 25.0046,5.3213038 c -0.008,0 -0.0155,0.008 -0.0155,0.0181 v 4.57439 H 9.67375 c -0.0697,0 -0.12609,0.0648 -0.12609,0.1452202 v 20.49745 c 0,0.0805 0.0564,0.14573 0.12609,0.14573 h 15.33912 c -0.008,0 -0.0155,0.008 -0.0155,0.0171 v 4.58473 c 0,0.009 0.007,0.0176 0.0155,0.0176 h 14.5216 c 0.008,0 0.015,-0.008 0.015,-0.0176 v -4.58473 c 0,-0.009 -0.007,-0.0171 -0.015,-0.0171 h 22.87819 c -0.008,0 -0.015,0.008 -0.015,0.0171 v 4.58473 c 0,0.009 0.006,0.0176 0.015,0.0176 h 14.52159 c 0.008,0 0.0155,-0.008 0.0155,-0.0176 v -4.58473 c 0,-0.009 -0.007,-0.0171 -0.0155,-0.0171 h 23.03374 c -0.008,0 -0.0155,0.008 -0.0155,0.0171 v 4.58473 c 0,0.009 0.007,0.0176 0.0155,0.0176 h 14.52107 c 0.008,0 0.0155,-0.008 0.0155,-0.0176 v -4.58473 c 0,-0.009 -0.007,-0.0171 -0.0155,-0.0171 H 129.422 c 0.0697,0 0.12557,-0.0652 0.12557,-0.14573 v -20.49745 c 0,-0.0805 -0.0559,-0.1452202 -0.12557,-0.1452202 h -14.92571 v -4.57439 c 0,-0.009 -0.007,-0.0181 -0.0155,-0.0181 H 99.95972 c -0.008,0 -0.0155,0.008 -0.0155,0.0181 v 4.57439 h -22.9123 v -4.57439 c 0,-0.009 -0.007,-0.0181 -0.0155,-0.0181 H 62.49483 c -0.008,0 -0.015,0.008 -0.015,0.0181 v 4.57439 H 39.54116 v -4.57439 c 0,-0.009 -0.006,-0.0181 -0.015,-0.0181 z M 69.68663,15.759424 a 4.1999998,4.1999998 0 0 1 4.19974,4.19975 4.1999998,4.1999998 0 0 1 -4.19974,4.20026 4.1999998,4.1999998 0 0 1 -4.20026,-4.20026 4.1999998,4.1999998 0 0 1 4.20026,-4.19975 z"
       id="rect4258" />
    <path
       inkscape:connector-curvature="0"
       style="fill:#786721;stroke-width:0.26420844"
       d="m 14.185698,58.357169 c -0.0567,0 -0.10232,0.0457 -0.10232,0.10231 V 118.2548 c 0,0.0566 0.0457,0.10232 0.10232,0.10232 H 133.98097 c 0.0566,0 0.10232,-0.0457 0.10232,-0.10232 V 58.459479 c 0,-0.0566 -0.0457,-0.10231 -0.10232,-0.10231 z m 15.003735,2.37298 h 14.52108 c 0.008,0 0.0155,0.007 0.0155,0.015 v 3.96927 c 0,0.008 -0.007,0.0155 -0.0155,0.0155 h -14.52108 c -0.008,0 -0.0155,-0.007 -0.0155,-0.0155 v -3.96926 c 0,-0.009 0.007,-0.015 0.0155,-0.015 z m 37.46438,0 h 14.52159 c 0.008,0 0.015,0.007 0.015,0.015 v 3.96927 c 0,0.008 -0.007,0.0155 -0.015,0.0155 h -14.52159 c -0.008,0 -0.0155,-0.007 -0.0155,-0.0155 v -3.96926 c 0,-0.009 0.007,-0.015 0.0155,-0.015 z m 37.490217,0 h 14.5216 c 0.008,0 0.0155,0.007 0.0155,0.015 v 3.96927 c 0,0.008 -0.007,0.0155 -0.0155,0.0155 h -14.5216 c -0.008,0 -0.0155,-0.007 -0.0155,-0.0155 v -3.96926 c 0,-0.009 0.007,-0.015 0.0155,-0.015 z m -87.291828,8.94209 h 3.75946 c 0.0666,0 0.120406,0.0538 0.120406,0.12041 v 3.75945 c 0,0.0666 -0.0538,0.11989 -0.120406,0.11989 h -3.75946 c -0.0666,0 -0.120406,-0.0533 -0.120406,-0.11989 v -3.75945 c 0,-0.0666 0.05381,-0.12041 0.120406,-0.12041 z m 110.794788,0 h 3.75946 c 0.0666,0 0.11989,0.0538 0.11989,0.12041 v 3.75945 c 0,0.0666 -0.0533,0.11989 -0.11989,0.11989 h -3.75946 c -0.0666,0 -0.1204,-0.0533 -0.1204,-0.11989 v -3.75945 c 0,-0.0666 0.0538,-0.12041 0.1204,-0.12041 z m -103.080014,9.55859 h 12.828677 c 0.10287,0 0.18552,0.0827 0.18552,0.18552 v 17.82888 c 0,0.10287 -0.0827,0.18552 -0.18552,0.18552 H 24.566976 c -0.102869,0 -0.185519,-0.0827 -0.185519,-0.18552 v -17.82888 c 0,-0.10287 0.08265,-0.18552 0.185519,-0.18552 z m 86.256744,0 h 12.82868 c 0.10282,0 0.18552,0.0827 0.18552,0.18552 v 17.82888 c 0,0.10287 -0.0827,0.18552 -0.18552,0.18552 h -12.82868 c -0.10287,0 -0.18551,-0.0827 -0.18551,-0.18552 v -17.82888 c 0,-0.10287 0.0827,-0.18552 0.18551,-0.18552 z m -94.076422,2.19004 h 3.969267 c 0.008,0 0.0155,0.007 0.0155,0.015 v 14.5216 c 0,0.008 -0.007,0.0155 -0.0155,0.0155 h -3.969267 c -0.008,0 -0.0155,-0.007 -0.0155,-0.0155 v -14.5216 c 0,-0.008 0.007,-0.015 0.0155,-0.015 z m 110.874372,0 h 3.96927 c 0.009,0 0.0155,0.007 0.0155,0.015 v 14.5216 c 0,0.008 -0.007,0.0155 -0.0155,0.0155 h -3.96927 c -0.008,0 -0.0155,-0.007 -0.0155,-0.0155 v -14.5216 c 0,-0.008 0.007,-0.015 0.0155,-0.015 z m -84.201577,2.80965 h 17.82888 c 0.10287,0 0.18552,0.0832 0.18552,0.18604 v 12.82867 c 0,0.10287 -0.0827,0.18552 -0.18552,0.18552 h -17.82888 c -0.10287,0 -0.18552,-0.0827 -0.18552,-0.18552 v -12.82867 c 0,-0.10288 0.0827,-0.18604 0.18552,-0.18604 z m 43.1276,0 h 17.828877 c 0.10287,0 0.18552,0.0832 0.18552,0.18604 v 12.82867 c 0,0.10287 -0.0827,0.18552 -0.18552,0.18552 H 86.547693 c -0.10287,0 -0.18552,-0.0827 -0.18552,-0.18552 v -12.82867 c 0,-0.10288 0.0827,-0.18604 0.18552,-0.18604 z M 16.852202,103.72132 h 3.75946 c 0.0666,0 0.120406,0.0538 0.120406,0.12041 v 3.75946 c 0,0.0666 -0.0538,0.11989 -0.120406,0.11989 h -3.75946 c -0.0666,0 -0.120406,-0.0533 -0.120406,-0.11989 v -3.75946 c 0,-0.0666 0.05381,-0.12041 0.120406,-0.12041 z m 110.874368,0 h 3.75946 c 0.0666,0 0.12041,0.0538 0.12041,0.12041 v 3.75946 c 0,0.0666 -0.0538,0.11989 -0.12041,0.11989 h -3.75946 c -0.0666,0 -0.1204,-0.0533 -0.1204,-0.11989 v -3.75946 c 0,-0.0666 0.0538,-0.12041 0.1204,-0.12041 z m -98.537137,8.28425 h 14.52108 c 0.008,0 0.0155,0.007 0.0155,0.015 v 3.96978 c 0,0.008 -0.007,0.015 -0.0155,0.015 h -14.52108 c -0.008,0 -0.0155,-0.007 -0.0155,-0.015 v -3.96978 c 0,-0.008 0.007,-0.015 0.0155,-0.015 z m 37.55481,0 h 14.5216 c 0.008,0 0.015,0.007 0.015,0.015 v 3.96978 c 0,0.008 -0.007,0.015 -0.015,0.015 h -14.5216 c -0.008,0 -0.0155,-0.007 -0.0155,-0.015 v -3.96978 c 0,-0.008 0.007,-0.015 0.0155,-0.015 z m 37.399787,0 h 14.5216 c 0.008,0 0.0155,0.007 0.0155,0.015 v 3.96978 c 0,0.008 -0.007,0.015 -0.0155,0.015 h -14.5216 c -0.008,0 -0.0155,-0.007 -0.0155,-0.015 v -3.96978 c 0,-0.008 0.007,-0.015 0.0155,-0.015 z"
       id="rect171-8" />
    <path
       style="fill:#786721;stroke-width:0.34477153"
       d="m 23.49269,139.12503 c -0.0085,0 -0.0155,0.008 -0.0155,0.0179 v 4.57457 H 8.161844 c -0.0697,0 -0.12609,0.0646 -0.12609,0.14502 v 20.49755 c 0,0.0805 0.0564,0.1456 0.12609,0.1456 h 15.339115 c -0.008,0 -0.0155,0.008 -0.0155,0.0173 v 4.58471 c 0,0.009 0.007,0.0173 0.0155,0.0173 h 14.521593 c 0.008,0 0.015,-0.008 0.015,-0.0173 v -4.58471 c 0,-0.009 -0.007,-0.0173 -0.015,-0.0173 H 60.90074 c -0.008,0 -0.015,0.008 -0.015,0.0173 v 4.58471 c 0,0.009 0.006,0.0173 0.015,0.0173 h 14.5216 c 0.008,0 0.0155,-0.008 0.0155,-0.0173 v -4.58471 c 0,-0.009 -0.007,-0.0173 -0.0155,-0.0173 h 23.03373 c -0.008,0 -0.0155,0.008 -0.0155,0.0173 v 4.58471 c 0,0.009 0.007,0.0173 0.0155,0.0173 h 14.52109 c 0.008,0 0.0155,-0.008 0.0155,-0.0173 v -4.58471 c 0,-0.009 -0.007,-0.0173 -0.0155,-0.0173 h 14.93293 c 0.0697,0 0.12558,-0.0651 0.12558,-0.1456 v -20.49755 c 0,-0.0805 -0.0559,-0.14502 -0.12558,-0.14502 h -14.9257 v -4.57457 c 0,-0.009 -0.007,-0.0179 -0.0155,-0.0179 H 98.44781 c -0.008,0 -0.0155,0.008 -0.0155,0.0179 v 4.57457 H 75.52002 v -4.57457 c 0,-0.009 -0.007,-0.0179 -0.0155,-0.0179 H 60.98293 c -0.008,0 -0.015,0.008 -0.015,0.0179 v 4.57457 H 38.029267 v -4.57457 c 0,-0.009 -0.0065,-0.0179 -0.01499,-0.0179 z"
       id="rect4258-6"
       inkscape:connector-curvature="0" />
    <path
       style="fill:#786721;stroke-width:0.26420844"
       d="m 8.8940286,188.38098 c -0.0566,0 -0.10232,0.0457 -0.10232,0.10232 v 59.79532 c 0,0.0566 0.0457,0.10232 0.10232,0.10232 H 128.6893 c 0.0567,0 0.10232,-0.0457 0.10232,-0.10232 V 188.4833 c 0,-0.0567 -0.0457,-0.10232 -0.10232,-0.10232 z m 15.3153504,2.3518 h 14.52159 c 0.008,0 0.015,0.007 0.015,0.015 v 3.96978 c 0,0.008 -0.007,0.015 -0.015,0.015 h -14.52159 c -0.008,0 -0.0155,-0.007 -0.0155,-0.015 v -3.96978 c 0,-0.008 0.007,-0.015 0.0155,-0.015 z m 37.39978,0 h 14.52159 c 0.008,0 0.0155,0.007 0.0155,0.015 v 3.96978 c 0,0.008 -0.007,0.015 -0.0155,0.015 h -14.52159 c -0.008,0 -0.015,-0.007 -0.015,-0.015 v -3.96978 c 0,-0.008 0.007,-0.015 0.015,-0.015 z m 37.55533,0 h 14.521081 c 0.008,0 0.0155,0.007 0.0155,0.015 v 3.96978 c 0,0.008 -0.007,0.015 -0.0155,0.015 H 99.164489 c -0.008,0 -0.0155,-0.007 -0.0155,-0.015 v -3.96978 c 0,-0.008 0.007,-0.015 0.0155,-0.015 z m -87.77552,8.28425 h 3.75946 c 0.0666,0 0.12041,0.0533 0.12041,0.11989 v 3.75946 c 0,0.0666 -0.0538,0.1204 -0.12041,0.1204 h -3.75946 c -0.0666,0 -0.12041,-0.0538 -0.12041,-0.1204 v -3.75946 c 0,-0.0666 0.0538,-0.11989 0.12041,-0.11989 z m 110.874371,0 h 3.75945 c 0.0666,0 0.12041,0.0533 0.12041,0.11989 v 3.75946 c 0,0.0666 -0.0538,0.1204 -0.12041,0.1204 h -3.75945 c -0.0666,0 -0.12041,-0.0538 -0.12041,-0.1204 v -3.75946 c 0,-0.0666 0.0538,-0.11989 0.12041,-0.11989 z M 11.284069,210.76515 h 3.96926 c 0.008,0 0.0155,0.007 0.0155,0.0155 v 14.52158 c 0,0.008 -0.007,0.015 -0.0155,0.015 h -3.96926 c -0.008,0 -0.0155,-0.007 -0.0155,-0.015 v -14.52158 c 0,-0.008 0.007,-0.0155 0.0155,-0.0155 z m 110.874361,0 h 3.96927 c 0.008,0 0.0155,0.007 0.0155,0.0155 v 14.52158 c 0,0.008 -0.007,0.015 -0.0155,0.015 h -3.96927 c -0.008,0 -0.0155,-0.007 -0.0155,-0.015 v -14.52158 c 0,-0.008 0.007,-0.0155 0.0155,-0.0155 z M 11.468549,233.06611 h 3.75946 c 0.0666,0 0.12041,0.0533 0.12041,0.11989 v 3.75946 c 0,0.0666 -0.0538,0.12041 -0.12041,0.12041 h -3.75946 c -0.0666,0 -0.11989,-0.0538 -0.11989,-0.12041 V 233.186 c 0,-0.0666 0.0533,-0.11989 0.11989,-0.11989 z m 110.794791,0 h 3.75945 c 0.0666,0 0.12041,0.0533 0.12041,0.11989 v 3.75946 c 0,0.0666 -0.0538,0.12041 -0.12041,0.12041 h -3.75945 c -0.0666,0 -0.12041,-0.0538 -0.12041,-0.12041 V 233.186 c 0,-0.0666 0.0538,-0.11989 0.12041,-0.11989 z m -98.053961,8.9421 h 14.52159 c 0.008,0 0.015,0.007 0.015,0.0155 v 3.96926 c 0,0.008 -0.007,0.015 -0.015,0.015 h -14.52159 c -0.008,0 -0.0155,-0.007 -0.0155,-0.015 v -3.96926 c 0,-0.008 0.007,-0.0155 0.0155,-0.0155 z m 37.49021,0 h 14.5216 c 0.009,0 0.0155,0.007 0.0155,0.0155 v 3.96926 c 0,0.008 -0.007,0.015 -0.0155,0.015 h -14.5216 c -0.008,0 -0.015,-0.007 -0.015,-0.015 v -3.96926 c 0,-0.008 0.007,-0.0155 0.015,-0.0155 z m 37.4649,0 h 14.521081 c 0.008,0 0.0155,0.007 0.0155,0.0155 v 3.96926 c 0,0.008 -0.007,0.015 -0.0155,0.015 H 99.164489 c -0.008,0 -0.0155,-0.007 -0.0155,-0.015 v -3.96926 c 0,-0.008 0.007,-0.0155 0.0155,-0.0155 z"
       id="rect171"
       inkscape:connector-curvature="0" />
    <path
       style="fill:#786721;stroke-width:0.2566725"
       d="m 154.54267,23.583362 c -0.0682,0 -0.12301,0.0475 -0.12301,0.10645 v 10.56318 h -4.62204 v 4.00028 h 4.62204 v 7.76386 c 0,-0.008 -0.008,-0.0155 -0.0179,-0.0155 h -4.58622 c -0.009,0 -0.0179,0.007 -0.0179,0.0155 v 14.52107 c 0,0.008 0.008,0.0155 0.0179,0.0155 h 4.58622 c 0.009,0 0.0179,-0.008 0.0179,-0.0155 v 7.7644 h -4.62204 v 3.99975 h 4.62204 v 11.17449 c 0,0.059 0.0549,0.10647 0.12301,0.10647 h 20.55169 c 0.0682,0 0.12301,-0.0475 0.12301,-0.10647 v -11.22204 h 4.58025 v -3.99976 h -4.58025 v -7.74887 h 4.56233 c 0.009,0 0.0179,-0.007 0.0179,-0.015 v -14.52158 c 0,-0.008 -0.008,-0.0155 -0.0179,-0.0155 h -4.56233 v -7.74837 h 4.58025 v -3.99975 h -4.58025 v -10.51616 c 0,-0.059 -0.0549,-0.10645 -0.12301,-0.10645 z"
       id="rect4371-0"
       inkscape:connector-curvature="0" />
    <path
       style="fill:#786721;stroke-width:0.2566725"
       d="m 155.29862,130.9286 c -0.0682,0 -0.12301,0.0475 -0.12301,0.10645 v 10.56318 h -4.62204 v 4.00028 h 4.62204 v 7.76386 c 0,-0.008 -0.008,-0.0155 -0.0179,-0.0155 h -4.58622 c -0.009,0 -0.0179,0.007 -0.0179,0.0155 v 14.52108 c 0,0.008 0.008,0.0155 0.0179,0.0155 h 4.58622 c 0.009,0 0.0179,-0.008 0.0179,-0.0155 v 7.76439 h -4.62204 v 3.99975 h 4.62204 v 11.17448 c 0,0.059 0.0549,0.10647 0.12301,0.10647 h 20.55169 c 0.0682,0 0.12301,-0.0475 0.12301,-0.10647 v -11.22203 h 4.58025 v -3.99975 h -4.58025 v -7.74888 h 4.56233 c 0.009,0 0.0179,-0.007 0.0179,-0.015 v -14.52158 c 0,-0.008 -0.008,-0.0155 -0.0179,-0.0155 h -4.56233 v -7.74837 h 4.58025 v -3.99975 h -4.58025 v -10.51616 c 0,-0.059 -0.0549,-0.10645 -0.12301,-0.10645 z"
       id="rect4371"
       inkscape:connector-curvature="0" />
  </g>
</svg>
