<?xml version="1.0" encoding="UTF-8" standalone="no"?>
<!-- Created with Inkscape (http://www.inkscape.org/) -->

<svg
   xmlns:dc="http://purl.org/dc/elements/1.1/"
   xmlns:cc="http://creativecommons.org/ns#"
   xmlns:rdf="http://www.w3.org/1999/02/22-rdf-syntax-ns#"
   xmlns:svg="http://www.w3.org/2000/svg"
   xmlns="http://www.w3.org/2000/svg"
   xmlns:sodipodi="http://sodipodi.sourceforge.net/DTD/sodipodi-0.dtd"
   xmlns:inkscape="http://www.inkscape.org/namespaces/inkscape"
   width="210mm"
   height="297mm"
   viewBox="0 0 210 297"
   version="1.1"
   id="svg169"
   inkscape:version="0.92.4 (5da689c313, 2019-01-14)"
   sodipodi:docname="remote control.svg">
  <defs
     id="defs163" />
  <sodipodi:namedview
     id="base"
     pagecolor="#ffffff"
     bordercolor="#666666"
     borderopacity="1.0"
     inkscape:pageopacity="0.0"
     inkscape:pageshadow="2"
     inkscape:zoom="0.7"
     inkscape:cx="541.12663"
     inkscape:cy="864.57765"
     inkscape:document-units="cm"
     inkscape:current-layer="layer1"
     showgrid="false"
     inkscape:window-width="1366"
     inkscape:window-height="705"
     inkscape:window-x="-8"
     inkscape:window-y="-8"
     inkscape:window-maximized="1"
     showguides="true"
     inkscape:guide-bbox="true">
    <sodipodi:guide
       position="60.135644,67.485556"
       orientation="1,0"
       id="guide4120"
       inkscape:locked="false" />
    <sodipodi:guide
       position="90.337101,69.089173"
       orientation="1,0"
       id="guide4124"
       inkscape:locked="false" />
    <sodipodi:guide
       position="26.03311,57.263395"
       orientation="0,1"
       id="guide4126"
       inkscape:locked="false" />
    <sodipodi:guide
       position="-0.03340869,1.9878172"
       orientation="0,1"
       id="guide4166"
       inkscape:locked="false" />
    <sodipodi:guide
       position="-161.8317,29.934188"
       orientation="0,1"
       id="guide4198"
       inkscape:locked="false" />
    <sodipodi:guide
       position="2.4568452,29.934189"
       orientation="1,0"
       id="guide4200"
       inkscape:locked="false" />
    <sodipodi:guide
       position="2.4568451,14.93006"
       orientation="0,1"
       id="guide4225"
       inkscape:locked="false" />
    <sodipodi:guide
       position="2.4568451,44.979168"
       orientation="0,1"
       id="guide4227"
       inkscape:locked="false" />
    <sodipodi:guide
       position="117.33132,29.934189"
       orientation="1,0"
       id="guide4260"
       inkscape:locked="false" />
    <sodipodi:guide
       position="10.156242,247.09068"
       orientation="1,0"
       id="guide65"
       inkscape:locked="false" />
    <sodipodi:guide
       position="18.307962,197.24492"
       orientation="0,1"
       id="guide67"
       inkscape:locked="false" />
    <sodipodi:guide
       position="109.61309,207.17821"
       orientation="1,0"
       id="guide102"
       inkscape:locked="false" />
    <sodipodi:guide
       position="29.009672,198.81548"
       orientation="1,0"
       id="guide104"
       inkscape:locked="false" />
    <sodipodi:guide
       position="2.4568451,214.75107"
       orientation="0,1"
       id="guide114"
       inkscape:locked="false" />
    <sodipodi:guide
       position="67.35192,279.96484"
       orientation="1,0"
       id="guide139"
       inkscape:locked="false" />
    <sodipodi:guide
       position="67.35192,279.96484"
       orientation="0,1"
       id="guide141"
       inkscape:locked="false" />
  </sodipodi:namedview>
  <metadata
     id="metadata166">
    <rdf:RDF>
      <cc:Work
         rdf:about="">
        <dc:format>image/svg+xml</dc:format>
        <dc:type
           rdf:resource="http://purl.org/dc/dcmitype/StillImage" />
        <dc:title />
      </cc:Work>
    </rdf:RDF>
  </metadata>
  <g
     inkscape:label="Layer 1"
     inkscape:groupmode="layer"
     id="layer1">
    <path
       style="fill:#786721;stroke-width:0.26420844"
       d="m 0.0668102,179.22189 c -0.05665,0 -0.1023193,0.0457 -0.1023193,0.10232 v 59.79532 c 0,0.0566 0.045669,0.10232 0.1023193,0.10232 H 119.86208 c 0.0567,0 0.10232,-0.0457 0.10232,-0.10232 v -59.79532 c 0,-0.0567 -0.0457,-0.10232 -0.10232,-0.10232 z m 15.3153438,2.3518 h 14.521595 c 0.0085,0 0.01499,0.007 0.01499,0.015 v 3.96978 c 0,0.008 -0.0065,0.015 -0.01499,0.015 H 15.382154 c -0.0085,0 -0.0155,-0.007 -0.0155,-0.015 v -3.96978 c 0,-0.008 0.007,-0.015 0.0155,-0.015 z m 37.399785,0 h 14.521592 c 0.0085,0 0.0155,0.007 0.0155,0.015 v 3.96978 c 0,0.008 -0.007,0.015 -0.0155,0.015 H 52.781939 c -0.0085,0 -0.01499,-0.007 -0.01499,-0.015 v -3.96978 c 0,-0.008 0.0065,-0.015 0.01499,-0.015 z m 37.555328,0 h 14.521083 c 0.008,0 0.0155,0.007 0.0155,0.015 v 3.96978 c 0,0.008 -0.007,0.015 -0.0155,0.015 H 90.337267 c -0.0085,0 -0.0155,-0.007 -0.0155,-0.015 v -3.96978 c 0,-0.008 0.007,-0.015 0.0155,-0.015 z m -87.7755187,8.28425 h 3.7594606 c 0.06661,0 0.120406,0.0533 0.120406,0.11989 v 3.75946 c 0,0.0666 -0.05379,0.1204 -0.120406,0.1204 H 2.5617483 c -0.066612,0 -0.120406,-0.0538 -0.1204061,-0.1204 v -3.75946 c 1e-7,-0.0666 0.053794,-0.11989 0.1204061,-0.11989 z m 110.8743717,0 h 3.75945 c 0.0666,0 0.12041,0.0533 0.12041,0.11989 v 3.75946 c 0,0.0666 -0.0538,0.1204 -0.12041,0.1204 h -3.75945 c -0.0666,0 -0.12041,-0.0538 -0.12041,-0.1204 v -3.75946 c 0,-0.0666 0.0538,-0.11989 0.12041,-0.11989 z M 2.4568452,201.60606 h 3.9692667 c 0.0085,0 0.0155,0.007 0.0155,0.0155 v 14.52158 c 0,0.008 -0.007,0.015 -0.0155,0.015 H 2.4568452 c -0.00848,0 -0.015503,-0.007 -0.015503,-0.015 v -14.52158 c 1e-7,-0.008 0.00703,-0.0155 0.015503,-0.0155 z m 110.8743648,0 h 3.96927 c 0.008,0 0.0155,0.007 0.0155,0.0155 v 14.52158 c 0,0.008 -0.007,0.015 -0.0155,0.015 h -3.96927 c -0.008,0 -0.0155,-0.007 -0.0155,-0.015 v -14.52158 c 0,-0.008 0.007,-0.0155 0.0155,-0.0155 z M 2.6413301,223.90702 h 3.7594608 c 0.06661,0 0.120406,0.0533 0.120406,0.11989 v 3.75946 c 0,0.0666 -0.05379,0.12041 -0.120406,0.12041 H 2.6413301 c -0.066612,0 -0.1198894,-0.0538 -0.1198894,-0.12041 v -3.75946 c 0,-0.0666 0.053277,-0.11989 0.1198894,-0.11989 z m 110.7947899,0 h 3.75945 c 0.0666,0 0.12041,0.0533 0.12041,0.11989 v 3.75946 c 0,0.0666 -0.0538,0.12041 -0.12041,0.12041 h -3.75945 c -0.0666,0 -0.12041,-0.0538 -0.12041,-0.12041 v -3.75946 c 0,-0.0666 0.0538,-0.11989 0.12041,-0.11989 z m -98.053966,8.9421 h 14.521595 c 0.0085,0 0.01499,0.007 0.01499,0.0155 v 3.96926 c 0,0.008 -0.0065,0.015 -0.01499,0.015 H 15.382154 c -0.0085,0 -0.0155,-0.007 -0.0155,-0.015 v -3.96926 c 0,-0.008 0.007,-0.0155 0.0155,-0.0155 z m 37.490217,0 h 14.521595 c 0.0085,0 0.0155,0.007 0.0155,0.0155 v 3.96926 c 0,0.008 -0.007,0.015 -0.0155,0.015 H 52.872371 c -0.0085,0 -0.01499,-0.007 -0.01499,-0.015 v -3.96926 c 0,-0.008 0.0065,-0.0155 0.01499,-0.0155 z m 37.464896,0 h 14.521083 c 0.008,0 0.0155,0.007 0.0155,0.0155 v 3.96926 c 0,0.008 -0.007,0.015 -0.0155,0.015 H 90.337267 c -0.0085,0 -0.0155,-0.007 -0.0155,-0.015 v -3.96926 c 0,-0.008 0.007,-0.0155 0.0155,-0.0155 z"
       id="rect171"
       inkscape:connector-curvature="0" />
    <path
       style="fill:#786721;stroke-width:1.30307353"
       d="M 85.646484 10.611328 C 85.614358 10.611328 85.587891 10.64227 85.587891 10.679688 L 85.587891 27.96875 L 27.703125 27.96875 C 27.439692 27.96875 27.226563 28.213629 27.226562 28.517578 L 27.226562 105.98828 C 27.226562 106.29253 27.439728 106.53906 27.703125 106.53906 L 85.677734 106.53906 C 85.647498 106.53906 85.619141 106.56837 85.619141 106.60352 L 85.619141 123.93164 C 85.619141 123.96566 85.645608 123.99805 85.677734 123.99805 L 140.5625 123.99805 C 140.59274 123.99805 140.61914 123.96679 140.61914 123.93164 L 140.61914 106.60352 C 140.61914 106.5695 140.5927 106.53906 140.5625 106.53906 L 227.03125 106.53906 C 227.00101 106.53906 226.97461 106.56837 226.97461 106.60352 L 226.97461 123.93164 C 226.97461 123.96566 226.99727 123.99805 227.03125 123.99805 L 281.91602 123.99805 C 281.94625 123.99805 281.97461 123.96679 281.97461 123.93164 L 281.97461 106.60352 C 281.97461 106.5695 281.94814 106.53906 281.91602 106.53906 L 368.97266 106.53906 C 368.94242 106.53906 368.91406 106.56837 368.91406 106.60352 L 368.91406 123.93164 C 368.91406 123.96566 368.94053 123.99805 368.97266 123.99805 L 423.85547 123.99805 C 423.8857 123.99805 423.91406 123.96679 423.91406 123.93164 L 423.91406 106.60352 C 423.91406 106.5695 423.88759 106.53906 423.85547 106.53906 L 480.29492 106.53906 C 480.55835 106.53906 480.76953 106.29253 480.76953 105.98828 L 480.76953 28.517578 C 480.76953 28.213326 480.55828 27.96875 480.29492 27.96875 L 423.88281 27.96875 L 423.88281 10.679688 C 423.88281 10.645672 423.85634 10.611328 423.82422 10.611328 L 368.94141 10.611328 C 368.90928 10.611328 368.88281 10.64227 368.88281 10.679688 L 368.88281 27.96875 L 282.28516 27.96875 L 282.28516 10.679688 C 282.28516 10.645672 282.25869 10.611328 282.22656 10.611328 L 227.3418 10.611328 C 227.30967 10.611328 227.28516 10.64227 227.28516 10.679688 L 227.28516 27.96875 L 140.58789 27.96875 L 140.58789 10.679688 C 140.58789 10.645672 140.56334 10.611328 140.53125 10.611328 L 85.646484 10.611328 z M 254.52344 50.0625 A 15.874015 15.874015 0 0 1 270.39648 65.935547 A 15.874015 15.874015 0 0 1 254.52344 81.810547 A 15.874015 15.874015 0 0 1 238.64844 65.935547 A 15.874015 15.874015 0 0 1 254.52344 50.0625 z "
       transform="scale(0.26458333)"
       id="rect4258" />
    <rect
       style="fill:#ffff00;stroke-width:0.32081795"
       id="rect4258-0"
       width="120"
       height="18"
       x="-197.39435"
       y="212.21577"
       ry="0.12576158" />
    <path
       style="fill:#ffff00;stroke-width:0.32081795"
       d="m 177.33079,-30.796693 c -0.008,0 -0.0155,0.007 -0.0155,0.0155 v 3.96099 h -15.31535 c -0.0697,0 -0.12609,0.0559 -0.12609,0.12557 v 17.74829 c 0,0.0697 0.0564,0.12607 0.12609,0.12607 h 15.33911 c -0.008,0 -0.0155,0.007 -0.0155,0.015 v 3.96978 c 0,0.008 0.007,0.015 0.0155,0.015 h 14.5216 c 0.008,0 0.015,-0.007 0.015,-0.015 v -3.96978 c 0,-0.008 -0.007,-0.015 -0.015,-0.015 h 22.87819 c -0.008,0 -0.015,0.007 -0.015,0.015 v 3.96978 c 0,0.008 0.006,0.015 0.015,0.015 h 14.52159 c 0.008,0 0.0155,-0.007 0.0155,-0.015 v -3.96978 c 0,-0.008 -0.007,-0.015 -0.0155,-0.015 h 23.03374 c -0.008,0 -0.0155,0.007 -0.0155,0.015 v 3.96978 c 0,0.008 0.007,0.015 0.0155,0.015 h 14.52107 c 0.008,0 0.0155,-0.007 0.0155,-0.015 v -3.96978 c 0,-0.008 -0.007,-0.015 -0.0155,-0.015 h 14.93293 c 0.0697,0 0.12558,-0.0564 0.12558,-0.12607 v -17.74829 c 0,-0.0697 -0.0559,-0.12557 -0.12558,-0.12557 h -14.9257 v -3.96099 c 0,-0.008 -0.007,-0.0155 -0.0155,-0.0155 H 252.2859 c -0.008,0 -0.0155,0.007 -0.0155,0.0155 v 3.96099 h -22.9123 v -3.96099 c 0,-0.008 -0.007,-0.0155 -0.0155,-0.0155 H 214.821 c -0.008,0 -0.015,0.007 -0.015,0.0155 v 3.96099 h -22.93867 v -3.96099 c 0,-0.008 -0.006,-0.0155 -0.015,-0.0155 z"
       id="rect4258-06"
       inkscape:connector-curvature="0" />
    <path
       style="fill:#786721;stroke-width:0.2566725"
       d="m 156.585,99.755081 c -0.0682,0 -0.12301,0.0475 -0.12301,0.10645 v 10.563179 h -4.62204 v 4.00028 h 4.62204 v 7.76386 c 0,-0.008 -0.008,-0.0155 -0.0179,-0.0155 h -4.58622 c -0.009,0 -0.0179,0.007 -0.0179,0.0155 v 14.52108 c 0,0.008 0.008,0.0155 0.0179,0.0155 h 4.58622 c 0.009,0 0.0179,-0.008 0.0179,-0.0155 v 7.76439 h -4.62204 v 3.99975 h 4.62204 v 11.17448 c 0,0.059 0.0549,0.10647 0.12301,0.10647 h 20.55169 c 0.0682,0 0.12301,-0.0475 0.12301,-0.10647 v -11.22203 h 4.58025 v -3.99975 h -4.58025 v -7.74888 h 4.56233 c 0.009,0 0.0179,-0.007 0.0179,-0.015 v -14.52158 c 0,-0.008 -0.008,-0.0155 -0.0179,-0.0155 h -4.56233 v -7.74837 h 4.58025 v -3.99975 H 177.2597 V 99.861531 c 0,-0.059 -0.0549,-0.10645 -0.12301,-0.10645 z"
       id="rect4371"
       inkscape:connector-curvature="0" />
    <rect
       style="fill:#ff0000;stroke-width:0.28156391"
       id="rect3762-2-5-6"
       width="14.552064"
       height="3.999999"
       x="174.15776"
       y="98.730652"
       ry="0.015297772"
       transform="rotate(90)" />
    <rect
       style="fill:#ff0000;stroke-width:0.29514593"
       id="rect4229-5-9"
       width="3.9999995"
       height="3.9999995"
       x="-72.209076"
       y="190.03273"
       ry="0" />
    <path
       style="fill:#ffff00;stroke-width:0.23878503"
       d="m 298.55365,-39.886724 c -0.059,0 -0.10646,0.0475 -0.10646,0.10645 v 10.56318 h -4.00027 v 4.00028 h 4.00027 v 7.76386 c 0,-0.008 -0.007,-0.0155 -0.0155,-0.0155 h -3.96927 c -0.008,0 -0.0155,0.007 -0.0155,0.0155 v 14.5210797 c 0,0.008 0.007,0.0155 0.0155,0.0155 h 3.96927 c 0.008,0 0.0155,-0.008 0.0155,-0.0155 v 7.76439 h -4.00027 v 3.99975 h 4.00027 V 20.006756 c 0,0.059 0.0475,0.10647 0.10646,0.10647 h 17.78702 c 0.059,0 0.10646,-0.0475 0.10646,-0.10647 V 8.7847157 h 3.9641 v -3.99975 h -3.9641 v -7.74887 h 3.94859 c 0.008,0 0.0155,-0.007 0.0155,-0.015 V -17.500494 c 0,-0.008 -0.007,-0.0155 -0.0155,-0.0155 h -3.94859 v -7.74837 h 3.9641 v -3.99975 h -3.9641 v -10.51616 c 0,-0.059 -0.0475,-0.10645 -0.10646,-0.10645 z"
       id="rect4371-8"
       inkscape:connector-curvature="0" />
    <rect
       style="fill:#786721;stroke-width:0.26420844"
       id="rect171-1"
       width="120"
       height="60"
       x="-51.180107"
       y="450.48053"
       ry="0.10225606" />
    <path
       style="fill:#786721;stroke-width:0.99858308"
       d="M 0.79296875 197.57031 C 0.57866954 197.57031 0.40625 197.74307 0.40625 197.95703 L 0.40625 423.95508 C 0.40625 424.169 0.5789719 424.3418 0.79296875 424.3418 L 453.5625 424.3418 C 453.77642 424.3418 453.94922 424.16907 453.94922 423.95508 L 453.94922 197.95703 C 453.94922 197.74311 453.7765 197.57031 453.5625 197.57031 L 0.79296875 197.57031 z M 57.5 206.53906 L 112.38281 206.53906 C 112.41305 206.53906 112.44141 206.56509 112.44141 206.5957 L 112.44141 221.59766 C 112.44141 221.62789 112.41494 221.65625 112.38281 221.65625 L 57.5 221.65625 C 57.469764 221.65625 57.441406 221.63016 57.441406 221.59766 L 57.441406 206.5957 C 57.441406 206.56169 57.467874 206.53906 57.5 206.53906 z M 199.09766 206.53906 L 253.98242 206.53906 C 254.01266 206.53906 254.03906 206.56509 254.03906 206.5957 L 254.03906 221.59766 C 254.03906 221.62789 254.01266 221.65625 253.98242 221.65625 L 199.09766 221.65625 C 199.06742 221.65625 199.03906 221.63016 199.03906 221.59766 L 199.03906 206.5957 C 199.03906 206.56169 199.06553 206.53906 199.09766 206.53906 z M 340.79297 206.53906 L 395.67773 206.53906 C 395.70797 206.53906 395.73633 206.56509 395.73633 206.5957 L 395.73633 221.59766 C 395.73633 221.62789 395.70986 221.65625 395.67773 221.65625 L 340.79297 221.65625 C 340.76273 221.65625 340.73437 221.63016 340.73438 221.59766 L 340.73438 206.5957 C 340.73438 206.56169 340.76273 206.53906 340.79297 206.53906 z M 10.871094 240.33594 L 25.080078 240.33594 C 25.331795 240.33594 25.535156 240.53926 25.535156 240.79102 L 25.535156 255 C 25.535156 255.25172 25.331832 255.45313 25.080078 255.45312 L 10.871094 255.45312 C 10.619377 255.45312 10.416016 255.25164 10.416016 255 L 10.416016 240.79102 C 10.416016 240.5393 10.619377 240.33594 10.871094 240.33594 z M 429.62305 240.33594 L 443.83203 240.33594 C 444.08375 240.33594 444.28516 240.53926 444.28516 240.79102 L 444.28516 255 C 444.28516 255.25172 444.08371 255.45313 443.83203 255.45312 L 429.62305 255.45312 C 429.37133 255.45312 429.16797 255.25164 429.16797 255 L 429.16797 240.79102 C 429.16797 240.5393 429.37129 240.33594 429.62305 240.33594 z M 40.029297 276.46289 L 88.515625 276.46289 C 88.904417 276.46289 89.216797 276.77526 89.216797 277.16406 L 89.216797 344.54883 C 89.216797 344.93762 88.904425 345.25 88.515625 345.25 L 40.029297 345.25 C 39.640501 345.25 39.328125 344.93763 39.328125 344.54883 L 39.328125 277.16406 C 39.328125 276.77526 39.640493 276.46289 40.029297 276.46289 z M 366.03906 276.46289 L 414.52539 276.46289 C 414.914 276.46289 415.22656 276.77526 415.22656 277.16406 L 415.22656 344.54883 C 415.22656 344.93762 414.91419 345.25 414.52539 345.25 L 366.03906 345.25 C 365.65026 345.25 365.33789 344.93763 365.33789 344.54883 L 365.33789 277.16406 C 365.33789 276.77526 365.65026 276.46289 366.03906 276.46289 z M 10.474609 284.74023 L 25.476562 284.74023 C 25.506799 284.74023 25.535156 284.76626 25.535156 284.79688 L 25.535156 339.68164 C 25.535156 339.71188 25.508688 339.74023 25.476562 339.74023 L 10.474609 339.74023 C 10.444373 339.74023 10.416016 339.71377 10.416016 339.68164 L 10.416016 284.79688 C 10.416016 284.76664 10.442483 284.74023 10.474609 284.74023 z M 429.52734 284.74023 L 444.5293 284.74023 C 444.56331 284.74023 444.58789 284.76626 444.58789 284.79688 L 444.58789 339.68164 C 444.58789 339.71188 444.56142 339.74023 444.5293 339.74023 L 429.52734 339.74023 C 429.49711 339.74023 429.46875 339.71377 429.46875 339.68164 L 429.46875 284.79688 C 429.46875 284.76664 429.49522 284.74023 429.52734 284.74023 z M 111.28516 295.35938 L 178.66992 295.35938 C 179.05871 295.35938 179.37109 295.6737 179.37109 296.0625 L 179.37109 344.54883 C 179.37109 344.93762 179.05872 345.25 178.66992 345.25 L 111.28516 345.25 C 110.89636 345.25 110.58398 344.93763 110.58398 344.54883 L 110.58398 296.0625 C 110.58398 295.67368 110.89636 295.35938 111.28516 295.35938 z M 274.28711 295.35938 L 341.67188 295.35938 C 342.06066 295.35938 342.37305 295.6737 342.37305 296.0625 L 342.37305 344.54883 C 342.37305 344.93762 342.06067 345.25 341.67188 345.25 L 274.28711 345.25 C 273.89832 345.25 273.58594 344.93763 273.58594 344.54883 L 273.58594 296.0625 C 273.58594 295.67368 273.89831 295.35938 274.28711 295.35938 z M 10.871094 369.02539 L 25.080078 369.02539 C 25.331795 369.02539 25.535156 369.22871 25.535156 369.48047 L 25.535156 383.68945 C 25.535156 383.94117 25.331832 384.14258 25.080078 384.14258 L 10.871094 384.14258 C 10.619377 384.14258 10.416016 383.94113 10.416016 383.68945 L 10.416016 369.48047 C 10.416016 369.22875 10.619377 369.02539 10.871094 369.02539 z M 429.92383 369.02539 L 444.13281 369.02539 C 444.38453 369.02539 444.58789 369.22871 444.58789 369.48047 L 444.58789 383.68945 C 444.58789 383.94117 444.38457 384.14258 444.13281 384.14258 L 429.92383 384.14258 C 429.67211 384.14258 429.46875 383.94113 429.46875 383.68945 L 429.46875 369.48047 C 429.46875 369.22875 429.67211 369.02539 429.92383 369.02539 z M 57.5 400.33594 L 112.38281 400.33594 C 112.41305 400.33594 112.44141 400.36234 112.44141 400.39258 L 112.44141 415.39648 C 112.44141 415.42672 112.41494 415.45312 112.38281 415.45312 L 57.5 415.45312 C 57.469764 415.45312 57.441406 415.42672 57.441406 415.39648 L 57.441406 400.39258 C 57.441406 400.36234 57.467874 400.33594 57.5 400.33594 z M 199.43945 400.33594 L 254.32422 400.33594 C 254.35445 400.33594 254.38086 400.36234 254.38086 400.39258 L 254.38086 415.39648 C 254.38086 415.42672 254.35445 415.45312 254.32422 415.45312 L 199.43945 415.45312 C 199.40922 415.45312 199.38086 415.42672 199.38086 415.39648 L 199.38086 400.39258 C 199.38086 400.36234 199.40733 400.33594 199.43945 400.33594 z M 340.79297 400.33594 L 395.67773 400.33594 C 395.70797 400.33594 395.73633 400.36234 395.73633 400.39258 L 395.73633 415.39648 C 395.73633 415.42672 395.70986 415.45312 395.67773 415.45312 L 340.79297 415.45312 C 340.76273 415.45312 340.73437 415.42672 340.73438 415.39648 L 340.73438 400.39258 C 340.73438 400.36234 340.76273 400.33594 340.79297 400.33594 z "
       transform="scale(0.26458333)"
       id="rect171-8" />
    <path
       style="fill:#786721;stroke-width:0.34477153"
       d="m 22.727593,137.29424 c -0.0085,0 -0.0155,0.008 -0.0155,0.0179 v 4.57457 H 7.3967463 c -0.0697,0 -0.12609,0.0646 -0.12609,0.14502 v 20.49755 c 0,0.0805 0.0564,0.1456 0.12609,0.1456 H 22.735862 c -0.008,0 -0.0155,0.008 -0.0155,0.0173 v 4.58471 c 0,0.009 0.007,0.0173 0.0155,0.0173 h 14.521592 c 0.008,0 0.015,-0.008 0.015,-0.0173 v -4.58471 c 0,-0.009 -0.007,-0.0173 -0.015,-0.0173 h 22.87819 c -0.008,0 -0.01497,0.008 -0.01497,0.0173 v 4.58471 c 0,0.009 0.006,0.0173 0.01497,0.0173 h 14.521594 c 0.008,0 0.0155,-0.008 0.0155,-0.0173 v -4.58471 c 0,-0.009 -0.007,-0.0173 -0.0155,-0.0173 h 23.033733 c -0.008,0 -0.0155,0.008 -0.0155,0.0173 v 4.58471 c 0,0.009 0.007,0.0173 0.0155,0.0173 h 14.521099 c 0.008,0 0.0155,-0.008 0.0155,-0.0173 v -4.58471 c 0,-0.009 -0.007,-0.0173 -0.0155,-0.0173 H 127.145 c 0.0697,0 0.12558,-0.0651 0.12558,-0.1456 v -20.49755 c 0,-0.0805 -0.0559,-0.14502 -0.12558,-0.14502 h -14.9257 v -4.57457 c 0,-0.009 -0.007,-0.0179 -0.0155,-0.0179 H 97.682711 c -0.008,0 -0.0155,0.008 -0.0155,0.0179 v 4.57457 H 74.754908 v -4.57457 c 0,-0.009 -0.007,-0.0179 -0.0155,-0.0179 h -14.5216 c -0.0085,0 -0.01497,0.008 -0.01497,0.0179 v 4.57457 H 37.264169 v -4.57457 c 0,-0.009 -0.0065,-0.0179 -0.01499,-0.0179 z"
       id="rect4258-6"
       inkscape:connector-curvature="0" />
    <path
       style="fill:#786721;stroke-width:0.2566725"
       d="m 157.20459,33.529938 c -0.0682,0 -0.12301,0.0475 -0.12301,0.10645 v 10.56318 h -4.62204 v 4.00028 h 4.62204 v 7.76386 c 0,-0.008 -0.008,-0.0155 -0.0179,-0.0155 h -4.58622 c -0.009,0 -0.0179,0.007 -0.0179,0.0155 v 14.52108 c 0,0.008 0.008,0.0155 0.0179,0.0155 h 4.58622 c 0.009,0 0.0179,-0.008 0.0179,-0.0155 v 7.76439 h -4.62204 v 3.999753 h 4.62204 v 11.17449 c 0,0.059 0.0549,0.10647 0.12301,0.10647 h 20.55169 c 0.0682,0 0.12301,-0.0475 0.12301,-0.10647 v -11.22204 h 4.58025 v -3.999753 h -4.58025 v -7.74888 h 4.56233 c 0.009,0 0.0179,-0.007 0.0179,-0.015 v -14.52158 c 0,-0.008 -0.008,-0.0155 -0.0179,-0.0155 h -4.56233 v -7.74837 h 4.58025 v -3.99975 h -4.58025 v -10.51616 c 0,-0.059 -0.0549,-0.10645 -0.12301,-0.10645 z"
       id="rect4371-0"
       inkscape:connector-curvature="0" />
    <path
       style="fill:#00ffff;stroke-width:0.48221213"
       d="m -152.35223,128.01611 c -0.10287,0 -0.18552,0.0827 -0.18552,0.18552 v 17.82889 c 0,0.10287 0.0827,0.18551 0.18552,0.18551 h 12.82867 c 0.10287,0 0.18552,-0.0827 0.18552,-0.18551 v -17.82889 c 0,-0.10287 -0.0827,-0.18552 -0.18552,-0.18552 z m 86.256745,0 c -0.10287,0 -0.18552,0.0827 -0.18552,0.18552 v 17.82889 c 0,0.10287 0.08265,0.18551 0.18552,0.18551 h 12.828667 c 0.10287,0 0.185521,-0.0827 0.185521,-0.18551 v -17.82889 c 0,-0.10287 -0.0827,-0.18552 -0.185521,-0.18552 z m -67.403635,4.9997 c -0.10287,0 -0.18552,0.0832 -0.18552,0.18603 v 12.82868 c 0,0.10287 0.0827,0.18551 0.18552,0.18551 h 17.82889 c 0.10287,0 0.18551,-0.0827 0.18551,-0.18551 v -12.82868 c 0,-0.10287 -0.0827,-0.18603 -0.18551,-0.18603 z m 43.127598,0 c -0.10287,0 -0.185518,0.0832 -0.185518,0.18603 v 12.82868 c 0,0.10287 0.08265,0.18551 0.185518,0.18551 h 17.828885 c 0.10287,0 0.185518,-0.0827 0.185518,-0.18551 v -12.82868 c 0,-0.10287 -0.08265,-0.18603 -0.185518,-0.18603 z"
       id="rect73-6"
       inkscape:connector-curvature="0" />
    <circle
       style="fill:#ff6600;stroke-width:0.33641219"
       id="path143-4"
       cx="-77.10714"
       cy="5.2023811"
       r="4.1999998" />
  </g>
</svg>
