<?xml version="1.0" encoding="UTF-8" standalone="no"?>
<!-- Created with Inkscape (http://www.inkscape.org/) -->

<svg
   xmlns:dc="http://purl.org/dc/elements/1.1/"
   xmlns:cc="http://creativecommons.org/ns#"
   xmlns:rdf="http://www.w3.org/1999/02/22-rdf-syntax-ns#"
   xmlns:svg="http://www.w3.org/2000/svg"
   xmlns="http://www.w3.org/2000/svg"
   xmlns:sodipodi="http://sodipodi.sourceforge.net/DTD/sodipodi-0.dtd"
   xmlns:inkscape="http://www.inkscape.org/namespaces/inkscape"
   width="210mm"
   height="297mm"
   viewBox="0 0 210 297"
   version="1.1"
   id="svg689"
   inkscape:version="0.92.4 (5da689c313, 2019-01-14)"
   sodipodi:docname="swivel disc.svg">
  <defs
     id="defs683" />
  <sodipodi:namedview
     id="base"
     pagecolor="#ffffff"
     bordercolor="#666666"
     borderopacity="1.0"
     inkscape:pageopacity="0.0"
     inkscape:pageshadow="2"
     inkscape:zoom="0.5"
     inkscape:cx="248.4731"
     inkscape:cy="988.4936"
     inkscape:document-units="cm"
     inkscape:current-layer="layer1"
     showgrid="false"
     showguides="true"
     inkscape:guide-bbox="true"
     inkscape:lockguides="false"
     inkscape:window-width="1366"
     inkscape:window-height="705"
     inkscape:window-x="-8"
     inkscape:window-y="-8"
     inkscape:window-maximized="1">
    <inkscape:grid
       type="xygrid"
       id="grid691" />
    <sodipodi:guide
       position="37.30625,34.13125"
       orientation="1,0"
       id="guide715"
       inkscape:locked="false" />
    <sodipodi:guide
       position="38.89375,35.189583"
       orientation="0,1"
       id="guide717"
       inkscape:locked="false" />
    <sodipodi:guide
       position="67.468748,108.47917"
       orientation="0,1"
       id="guide90"
       inkscape:locked="false" />
    <sodipodi:guide
       position="80.168746,262.73125"
       orientation="0,1"
       id="guide130"
       inkscape:locked="false" />
    <sodipodi:guide
       position="55.09761,272.96237"
       orientation="0,1"
       id="guide132"
       inkscape:locked="false" />
    <sodipodi:guide
       position="37.306249,252.94388"
       orientation="0,1"
       id="guide134"
       inkscape:locked="false" />
    <sodipodi:guide
       position="25.267707,279.20156"
       orientation="1,0"
       id="guide136"
       inkscape:locked="false" />
    <sodipodi:guide
       position="49.278643,272.96238"
       orientation="1,0"
       id="guide142"
       inkscape:locked="false" />
    <sodipodi:guide
       position="31.290578,275.11389"
       orientation="1,0"
       id="guide165"
       inkscape:locked="false" />
    <sodipodi:guide
       position="43.264253,274.83326"
       orientation="1,0"
       id="guide167"
       inkscape:locked="false" />
    <sodipodi:guide
       position="63.235967,262.73126"
       orientation="1,0"
       id="guide242"
       inkscape:locked="false" />
    <sodipodi:guide
       position="11.318864,262.73126"
       orientation="1,0"
       id="guide244"
       inkscape:locked="false" />
    <sodipodi:guide
       position="37.306249,288.85885"
       orientation="0,1"
       id="guide252"
       inkscape:locked="false" />
    <sodipodi:guide
       position="37.306249,236.86823"
       orientation="0,1"
       id="guide254"
       inkscape:locked="false" />
    <sodipodi:guide
       position="129.20811,246.93366"
       orientation="1,0"
       id="guide308"
       inkscape:locked="false" />
    <sodipodi:guide
       position="34.728333,365.06846"
       orientation="0,1"
       id="guide572"
       inkscape:locked="false" />
    <sodipodi:guide
       position="112.77864,127.26458"
       orientation="1,0"
       id="guide750"
       inkscape:locked="false" />
    <sodipodi:guide
       position="176.85141,106.8861"
       orientation="1,0"
       id="guide84"
       inkscape:locked="false" />
    <sodipodi:guide
       position="44.66742,371.5581"
       orientation="0,1"
       id="guide3896"
       inkscape:locked="false" />
    <sodipodi:guide
       position="43.264252,358.59311"
       orientation="0,1"
       id="guide3925"
       inkscape:locked="false" />
  </sodipodi:namedview>
  <metadata
     id="metadata686">
    <rdf:RDF>
      <cc:Work
         rdf:about="">
        <dc:format>image/svg+xml</dc:format>
        <dc:type
           rdf:resource="http://purl.org/dc/dcmitype/StillImage" />
        <dc:title />
      </cc:Work>
    </rdf:RDF>
  </metadata>
  <g
     inkscape:label="Layer 1"
     inkscape:groupmode="layer"
     id="layer1">
    <path
       style="fill:#a0892c;stroke-width:0.03988744"
       d="m -116.50047,65.500585 a 34.999998,34.999998 0 0 0 -34.99993,35.000445 34.999998,34.999998 0 0 0 34.99993,34.99993 34.999998,34.999998 0 0 0 34.999932,-34.99993 34.999998,34.999998 0 0 0 -34.999932,-35.000445 z m -1.85105,33.16852 h 3.82096 c 0.43741,0 0.78961,0.3522 0.78961,0.78962 v 2.221045 c 0,0.43742 -0.3522,0.78961 -0.78961,0.78961 h -3.82096 c -0.43741,0 -0.78961,-0.35219 -0.78961,-0.78961 v -2.221045 c 0,-0.43742 0.3522,-0.78962 0.78961,-0.78962 z"
       id="path693"
       inkscape:connector-curvature="0" />
    <circle
       style="fill:#00ff00;stroke-width:0.98796088"
       id="path719"
       cx="-66.820992"
       cy="211.12334"
       r="1.21" />
    <circle
       style="fill:#00ff00;stroke-width:0.98796088"
       id="path719-3"
       cx="-71.460716"
       cy="217.24847"
       r="1.21" />
    <rect
       style="fill:#008080;stroke-width:0.26458332"
       id="rect697-3"
       width="5.4000001"
       height="3.8"
       x="-83.716667"
       y="211.44374"
       ry="0.7895596" />
    <path
       style="fill:#a0892c;stroke-width:0.03988744"
       d="M 37.298016,155.56315 A 34.999998,34.999998 0 0 0 2.2980855,190.5636 34.999998,34.999998 0 0 0 37.298016,225.56353 34.999998,34.999998 0 0 0 72.297946,190.5636 34.999998,34.999998 0 0 0 37.298016,155.56315 Z m -0.04134,6.78564 a 2.0999998,2.0999998 0 0 1 2.100131,2.10013 2.0999998,2.0999998 0 0 1 -2.100131,2.09961 2.0999998,2.0999998 0 0 1 -2.10013,-2.09961 2.0999998,2.0999998 0 0 1 2.10013,-2.10013 z m -25.97981,26.13484 a 2.0999998,2.0999998 0 0 1 2.100131,2.10013 2.0999998,2.0999998 0 0 1 -2.100131,2.09961 2.0999998,2.0999998 0 0 1 -2.0996131,-2.09961 2.0999998,2.0999998 0 0 1 2.0996131,-2.10013 z m 51.959102,0.0372 a 2.0999999,2.0999999 0 0 1 2.10013,2.10013 2.0999999,2.0999999 0 0 1 -2.10013,2.09962 2.0999999,2.0999999 0 0 1 -2.10013,-2.09962 2.0999999,2.0999999 0 0 1 2.10013,-2.10013 z m -25.927616,0.82372 a 1.2099999,1.2099999 0 0 1 1.209747,1.20975 1.2099999,1.2099999 0 0 1 -1.209747,1.21026 1.2099999,1.2099999 0 0 1 -1.210262,-1.21026 1.2099999,1.2099999 0 0 1 1.210262,-1.20975 z m -0.0057,25.02225 a 2.0999998,2.0999998 0 0 1 2.10013,2.10013 2.0999998,2.0999998 0 0 1 -2.10013,2.09961 2.0999998,2.0999998 0 0 1 -2.099614,-2.09961 2.0999998,2.0999998 0 0 1 2.099614,-2.10013 z"
       id="path693-6"
       inkscape:connector-curvature="0" />
    <path
       style="fill:#a0892c;stroke-width:0.03988744"
       d="M 39.362743,1.2339208 A 34.999998,34.999998 0 0 0 4.362813,36.233851 34.999998,34.999998 0 0 0 39.362743,71.233781 34.999998,34.999998 0 0 0 74.362673,36.233851 34.999998,34.999998 0 0 0 39.362743,1.2339208 Z m -0.0651,7.0373 a 1.9999997,1.9999997 0 0 1 2.00039,1.9998802 1.9999997,1.9999997 0 0 1 -2.00039,1.99988 1.9999997,1.9999997 0 0 1 -1.99988,-1.99988 1.9999997,1.9999997 0 0 1 1.99988,-1.9998802 z m 0.002,13.8875202 a 1.9999999,1.9999999 0 0 1 1.99988,1.99988 1.9999999,1.9999999 0 0 1 -1.99988,2.0004 1.9999999,1.9999999 0 0 1 -2.0004,-2.0004 1.9999999,1.9999999 0 0 1 2.0004,-1.99988 z m -8.03104,0.008 h 4.00028 v 4.00028 h -4.00028 z m 11.99565,0 h 3.97857 c 0.006,0 0.0109,0.005 0.0109,0.0109 v 3.97857 c 0,0.006 -0.005,0.0109 -0.0109,0.0109 h -3.97857 c -0.006,0 -0.0109,-0.005 -0.0109,-0.0109 v -3.97857 c 0,-0.006 0.005,-0.0109 0.0109,-0.0109 z m 21.96094,12.22871 a 1.9999997,1.9999997 0 0 1 1.99988,1.99988 1.9999997,1.9999997 0 0 1 -1.99988,1.99988 1.9999997,1.9999997 0 0 1 -1.99988,-1.99988 1.9999997,1.9999997 0 0 1 1.99988,-1.99988 z m -51.92862,0.003 a 1.9999997,1.9999997 0 0 1 1.99988,2.0004 1.9999997,1.9999997 0 0 1 -1.99988,1.99988 1.9999997,1.9999997 0 0 1 -2.00039,-1.99988 1.9999997,1.9999997 0 0 1 2.00039,-2.0004 z m 29.95731,11.78735 h 3.99976 v 3.99976 h -3.99976 z m -11.97394,0.0114 h 3.99975 v 4.00027 h -3.99975 z m 8.01501,0.006 a 1.9999998,1.9999998 0 0 1 2.00039,2.0004 1.9999998,1.9999998 0 0 1 -2.00039,1.99987 1.9999998,1.9999998 0 0 1 -1.99988,-1.99987 1.9999998,1.9999998 0 0 1 1.99988,-2.0004 z m -10e-4,14.05496 a 1.9999997,1.9999997 0 0 1 1.99988,1.99987 1.9999997,1.9999997 0 0 1 -1.99988,1.99988 1.9999997,1.9999997 0 0 1 -1.99988,-1.99988 1.9999997,1.9999997 0 0 1 1.99988,-1.99987 z"
       id="path693-6-2"
       inkscape:connector-curvature="0" />
    <text
       xml:space="preserve"
       style="font-style:normal;font-weight:normal;font-size:3.52777767px;line-height:1.25;font-family:sans-serif;letter-spacing:0px;word-spacing:0px;fill:#000000;fill-opacity:1;stroke:none;stroke-width:0.26458332"
       x="20.372915"
       y="205.18959"
       id="text128"><tspan
         sodipodi:role="line"
         id="tspan126"
         x="20.372915"
         y="205.18959"
         style="font-size:3.52777767px;stroke-width:0.26458332">2mm motor screw</tspan></text>
    <rect
       style="fill:#ff0000;stroke-width:0.33866674"
       id="rect144"
       width="24"
       height="4"
       x="-47.676567"
       y="20.03763"
       ry="0" />
    <path
       style="fill:#a0892c;stroke-width:1.19736779"
       d="m -115.21536,22.589359 c 0,-4.871411 -3.92184,-8.793263 -8.79326,-8.793263 h -65.41358 c -4.87141,0 -8.79326,3.921852 -8.79326,8.793263 v 0.206706 6.206855 8.264096 0.529167 45.471126 h 4.02352 v 3.994071 h 3.99976 v -3.994071 h 2.45101 V 72.251444 h -1.4459 V 70.05106 h 1.4459 v -3.966681 h 2.99982 v 3.966681 h 1.55391 v 2.200384 h -1.55391 v 11.015865 h 2.52233 v 3.999754 h 3.99975 v -3.999754 h 4.00389 3.99976 v -4.000274 h -3.99976 V 37.796183 h 25.99996 24.2068 c 4.87142,0 8.79326,-3.921842 8.79326,-8.793263 z m -13.38006,3.501078 a 4.0100001,4.0100001 0 0 1 -4.0101,4.010091 4.0100001,4.0100001 0 0 1 -4.01009,-4.010091 4.0100001,4.0100001 0 0 1 4.01009,-4.010092 4.0100001,4.0100001 0 0 1 4.0101,4.010092 z m -13.36405,-0.07803 a 1.9199999,1.9199999 0 0 1 -1.92029,1.919779 1.9199999,1.9199999 0 0 1 -1.91978,-1.919779 1.9199999,1.9199999 0 0 1 1.91978,-1.920296 1.9199999,1.9199999 0 0 1 1.92029,1.920296 z m -9.30847,-8.585523 a 1.605,1.605 0 0 1 -1.60456,1.605071 1.605,1.605 0 0 1 -1.60507,-1.605071 1.605,1.605 0 0 1 1.60507,-1.604553 1.605,1.605 0 0 1 1.60456,1.604553 z m -0.0465,16.841867 a 1.605,1.605 0 0 1 -1.60507,1.605071 1.605,1.605 0 0 1 -1.60507,-1.605071 1.605,1.605 0 0 1 1.60507,-1.605071 1.605,1.605 0 0 1 1.60507,1.605071 z m -6.32366,-16.126148 v 12.999723 h -25.00002 V 18.142603 Z m -40.58822,61.124433 h -3.99975 v 4.000274 h 3.99975 z"
       id="rect144-0"
       inkscape:connector-curvature="0" />
    <path
       inkscape:connector-curvature="0"
       style="fill:#00ffff;stroke-width:0.3985084"
       d="m -31.693746,-30.769441 a 2,2 0 0 0 -2.000386,1.999878 2,2 0 0 0 2.000386,2.000395 2,2 0 0 0 1.99988,-2.000395 2,2 0 0 0 -1.99988,-1.999878 z m -8.031026,0.0083 v 4.000273 h 4.00027 v -4.000305 z m 11.995646,0 c -0.006,0 -0.0109,0.0049 -0.0109,0.01085 v 3.978568 c 0,0.0059 0.005,0.01085 0.0109,0.01085 h 3.97857 c 0.006,0 0.0109,-0.0049 0.0109,-0.01085 v -3.97857 c 0,-0.0059 -0.005,-0.01085 -0.0109,-0.01085 z"
       id="path161-7" />
    <text
       xml:space="preserve"
       style="font-style:normal;font-weight:normal;font-size:3.52777767px;line-height:1.25;font-family:sans-serif;letter-spacing:0px;word-spacing:0px;fill:#000000;fill-opacity:1;stroke:none;stroke-width:0.26458332"
       x="19.45722"
       y="53.036381"
       id="text298"><tspan
         sodipodi:role="line"
         id="tspan296"
         x="19.45722"
         y="53.036381"
         style="stroke-width:0.26458332">4mm Arm stand</tspan><tspan
         sodipodi:role="line"
         x="19.45722"
         y="57.446102"
         style="stroke-width:0.26458332"
         id="tspan3938">BO motor base</tspan></text>
    <rect
       style="fill:#00ff00;stroke-width:0.86676037"
       id="rect316-9"
       width="2.9999998"
       height="21.200001"
       x="-65.493233"
       y="-19.683203" />
    <path
       inkscape:connector-curvature="0"
       style="fill:#00ffff;stroke-width:0.3985084"
       d="m -30.899997,-6.4649807 a 2,2 0 0 0 -2.000385,1.999878 2,2 0 0 0 2.000385,2.000395 2,2 0 0 0 1.99988,-2.000395 2,2 0 0 0 -1.99988,-1.999878 z m -8.031025,0.0083 v 4.000273 h 4.00027 v -4.000305 z m 11.995645,0 c -0.006,0 -0.0109,0.0049 -0.0109,0.01085 v 3.978568 c 0,0.0059 0.005,0.01085 0.0109,0.01085 h 3.97857 c 0.006,0 0.0109,-0.0049 0.0109,-0.01085 v -3.97857 c 0,-0.0059 -0.005,-0.01085 -0.0109,-0.01085 z"
       id="path161-7-5" />
    <rect
       style="fill:#ff00ff;stroke-width:0.24267507"
       id="rect336"
       width="3.9999998"
       height="3.9999998"
       x="-48.876591"
       y="-7.1243467" />
    <rect
       style="fill:#ff00ff;stroke-width:0.24267507"
       id="rect336-7"
       width="3.9999998"
       height="3.9999998"
       x="-29.398108"
       y="8.1411505" />
    <flowRoot
       xml:space="preserve"
       id="flowRoot427"
       style="font-style:normal;font-weight:normal;font-size:13.33333302px;line-height:1.25;font-family:sans-serif;letter-spacing:0px;word-spacing:0px;fill:#000000;fill-opacity:1;stroke:none"
       transform="scale(0.26458333)"><flowRegion
         id="flowRegion429"><rect
           id="rect431"
           width="43"
           height="36.331173"
           x="653"
           y="54.519714" /></flowRegion><flowPara
         id="flowPara433">baArm se</flowPara></flowRoot>    <path
       style="fill:#a0892c;stroke-width:1.19736779"
       d="M -170.36527,-44.068374 V 1.9319186 h 4.02353 v 3.99407 h 3.99975 v -3.99407 h 2.45102 v -11.015864 h -1.44591 v -2.2003826 h 1.44591 v -3.966684 h 2.99981 v 3.966684 h 1.55391 v 2.2003826 h -1.55391 v 11.015864 h 2.52233 v 3.999756 h 3.99976 v -3.999756 h 4.00389 3.99975 v -4.000273 h -3.99975 V -44.068374 Z m -4.01061,42.0000196 v 4.000273 h 3.99976 v -4.000273 z"
       id="rect144-0-9"
       inkscape:connector-curvature="0" />
    <path
       style="fill:#a0892c;stroke-width:0.28455514"
       d="m -248.80444,171.17409 v 8.79326 6.41408 8.79274 46.00081 h 4.02352 v 3.99407 h 3.99976 v -3.99407 h 2.45101 V 230.1586 h -1.4459 v -2.19987 h 1.4459 v -3.96668 h 2.99982 v 3.96668 h 1.55391 v 2.19987 h -1.55391 v 11.01638 h 2.52233 v 3.99924 h 3.99976 v -3.99924 h 4.00388 3.99976 v -4.00079 h -3.99976 v -42.00002 h 25.99997 24.20678 c 4.87143,0 8.79327,-3.92132 8.79327,-8.79274 v -6.41408 c 0,-4.87141 -3.92184,-8.79326 -8.79327,-8.79326 h -24.20678 -41.20679 z m 45.34296,2.02675 a 1.605,1.605 0 0 1 1.60457,1.60455 1.605,1.605 0 0 1 -1.60457,1.60507 1.605,1.605 0 0 1 -1.60507,-1.60507 1.605,1.605 0 0 1 1.60507,-1.60455 z m -29.76562,2.32027 h 25.00003 v 12.99972 h -25.00003 z m 50.0326,3.93774 a 4.0100001,4.0100001 0 0 1 4.0101,4.01009 4.0100001,4.0100001 0 0 1 -4.0101,4.01009 4.0100001,4.0100001 0 0 1 -4.01008,-4.01009 4.0100001,4.0100001 0 0 1 4.01008,-4.01009 z m -11.27424,2.01177 a 1.9199999,1.9199999 0 0 1 1.92029,1.92029 1.9199999,1.9199999 0 0 1 -1.92029,1.91978 1.9199999,1.9199999 0 0 1 -1.91979,-1.91978 1.9199999,1.9199999 0 0 1 1.91979,-1.92029 z m -9.03976,8.57156 a 1.605,1.605 0 0 1 1.60507,1.60508 1.605,1.605 0 0 1 -1.60507,1.60506 1.605,1.605 0 0 1 -1.60506,-1.60506 1.605,1.605 0 0 1 1.60506,-1.60508 z"
       id="path871"
       inkscape:connector-curvature="0" />
    <path
       style="fill:#a0892c;stroke-width:0.28455514"
       d="m -79.513006,-26.575385 v 4.00028 h 3.99976 v -4.00028 z"
       id="rect441-8-9"
       inkscape:connector-curvature="0" />
    <path
       style="fill:#a0892c;stroke-width:0.38177064"
       d="m 98.31337,0.03754378 c -5.28225,0 -9.53482,3.92184302 -9.53482,8.79326402 v 0.206705 6.2068552 8.793263 46.000291 h 4.02353 v 3.994068 h 3.99975 v -3.994068 h 2.45102 V 59.022059 h -1.44591 v -2.200384 h 1.44591 v -3.966683 h 2.99981 v 3.966683 h 1.55391 v 2.200384 h -1.55391 v 11.015863 h 2.52233 v 3.999758 h 3.99975 v -3.999758 h 4.0039 3.99975 V 66.03765 h -3.99975 V 24.037631 h 30.21675 26.24853 c 5.28225,0 9.53482,-3.921842 9.53482,-8.793263 V 8.8308078 c 0,-4.871421 -4.25257,-8.79326402 -9.53482,-8.79326402 z m 44.11048,2.02623502 a 1.605,1.605 0 0 1 1.60456,1.604553 1.605,1.605 0 0 1 -1.60456,1.605068 1.605,1.605 0 0 1 -1.60507,-1.605068 1.605,1.605 0 0 1 1.60507,-1.604553 z m -29.76562,2.320272 h 25.00002 V 17.383773 h -25.00002 z m 50.0326,3.937743 a 4.0100001,4.0100001 0 0 1 4.0101,4.0100912 4.0100001,4.0100001 0 0 1 -4.0101,4.010091 4.0100001,4.0100001 0 0 1 -4.01009,-4.010091 4.0100001,4.0100001 0 0 1 4.01009,-4.0100912 z m -11.27424,2.0117622 a 1.9199999,1.9199999 0 0 1 1.92029,1.920298 1.9199999,1.9199999 0 0 1 -1.92029,1.91978 1.9199999,1.9199999 0 0 1 -1.91978,-1.91978 1.9199999,1.9199999 0 0 1 1.91978,-1.920298 z m -9.03976,8.571571 a 1.605,1.605 0 0 1 1.60507,1.605071 1.605,1.605 0 0 1 -1.60507,1.605069 1.605,1.605 0 0 1 -1.60507,-1.605069 1.605,1.605 0 0 1 1.60507,-1.605071 z M 84.76794,66.03765 v 4.000272 H 88.7677 V 66.03765 Z"
       id="rect441-2"
       inkscape:connector-curvature="0" />
    <rect
       style="fill:#008080;stroke-width:0.26458332"
       id="rect697-3-7"
       width="5.4000001"
       height="3.8"
       x="-62.800072"
       y="-42.000977"
       ry="0.7895596" />
    <text
       xml:space="preserve"
       style="font-style:normal;font-weight:normal;font-size:3.52777767px;line-height:1.25;font-family:sans-serif;letter-spacing:0px;word-spacing:0px;fill:#000000;fill-opacity:1;stroke:none;stroke-width:0.26458332"
       x="91.171814"
       y="51.430073"
       id="text612"><tspan
         sodipodi:role="line"
         id="tspan610"
         x="91.171814"
         y="51.430073"
         style="stroke-width:0.26458332">base arm 1</tspan></text>
    <path
       style="fill:#ffaaaa;stroke-width:0.03988744"
       d="m -222.72252,60.131771 a 34.999996,34.999996 0 0 0 -34.99993,35.00045 34.999996,34.999996 0 0 0 34.99993,34.999929 34.999996,34.999996 0 0 0 34.99993,-34.999929 34.999996,34.999996 0 0 0 -34.99993,-35.00045 z m 0.0103,33.7814 a 1.21,1.21 0 0 1 1.20974,1.20975 1.21,1.21 0 0 1 -1.20974,1.21026 1.21,1.21 0 0 1 -1.21027,-1.21026 1.21,1.21 0 0 1 1.21027,-1.20975 z"
       id="path693-6-7"
       inkscape:connector-curvature="0" />
    <path
       style="fill:#a0892c;stroke-width:0.20576088"
       d="m -101.50855,169.5375 v 109.99999 h 17.999929 V 169.5375 Z m 6.953059,18.98333 h 3.82096 c 0.43742,0 0.78962,0.35221 0.78962,0.78962 v 2.22105 c 0,0.43742 -0.3522,0.78962 -0.78962,0.78962 h -3.82096 c -0.43741,0 -0.78961,-0.3522 -0.78961,-0.78962 v -2.22105 c 0,-0.43741 0.3522,-0.78962 0.78961,-0.78962 z"
       id="rect731"
       inkscape:connector-curvature="0" />
    <path
       style="fill:#a0892c;stroke-width:0.20576088"
       d="m 145.67842,167.71848 c -2.49847,0 -4.5098,2.01134 -4.5098,4.50981 v 100.98039 c 0,2.49846 2.01133,4.5098 4.5098,4.5098 h 8.98033 c 2.49847,0 4.5098,-2.01134 4.5098,-4.5098 V 172.22829 c 0,-2.49847 -2.01133,-4.50981 -4.5098,-4.50981 z m 2.4474,18.98334 h 3.82095 c 0.43742,0 0.78962,0.3522 0.78962,0.78962 v 2.22105 c 0,0.43742 -0.3522,0.78962 -0.78962,0.78962 h -3.82095 c -0.43742,0 -0.78962,-0.3522 -0.78962,-0.78962 v -2.22105 c 0,-0.43742 0.3522,-0.78962 0.78962,-0.78962 z"
       id="rect731-9"
       inkscape:connector-curvature="0" />
    <path
       style="fill:#a0892c;stroke-width:0.20576088"
       d="m -132.91826,169.5375 v 109.99999 h 17.99993 V 169.5375 Z m 6.95306,18.98333 h 3.82096 c 0.43742,0 0.78962,0.35221 0.78962,0.78962 v 2.22105 c 0,0.43742 -0.3522,0.78962 -0.78962,0.78962 h -3.82096 c -0.43741,0 -0.78961,-0.3522 -0.78961,-0.78962 v -2.22105 c 0,-0.43741 0.3522,-0.78962 0.78961,-0.78962 z"
       id="rect731-2"
       inkscape:connector-curvature="0" />
    <path
       style="fill:#a0892c;stroke-width:0.20576088"
       d="m 110.33124,169.53749 c -2.49847,0 -4.5098,2.01134 -4.5098,4.50981 v 100.98039 c 0,2.49846 2.01133,4.5098 4.5098,4.5098 h 8.98033 c 2.49847,0 4.5098,-2.01134 4.5098,-4.5098 V 174.0473 c 0,-2.49847 -2.01133,-4.50981 -4.5098,-4.50981 z m 2.4474,18.98334 h 3.82095 c 0.43742,0 0.78962,0.3522 0.78962,0.78962 v 2.22105 c 0,0.43742 -0.3522,0.78962 -0.78962,0.78962 h -3.82095 c -0.43742,0 -0.78962,-0.3522 -0.78962,-0.78962 v -2.22105 c 0,-0.43742 0.3522,-0.78962 0.78962,-0.78962 z"
       id="rect731-9-7"
       inkscape:connector-curvature="0" />
    <flowRoot
       xml:space="preserve"
       id="flowRoot896"
       style="font-style:normal;font-weight:normal;font-size:13.33333302px;line-height:1.25;font-family:sans-serif;letter-spacing:0px;word-spacing:0px;fill:#000000;fill-opacity:1;stroke:none"
       transform="scale(0.26458333)"><flowRegion
         id="flowRegion898"><rect
           id="rect900"
           width="42"
           height="43"
           x="553"
           y="923.51971" /></flowRegion><flowPara
         id="flowPara902">probe arm 1</flowPara></flowRoot>    <text
       xml:space="preserve"
       style="font-style:normal;font-weight:normal;font-size:3.52777767px;line-height:1.25;font-family:sans-serif;letter-spacing:0px;word-spacing:0px;fill:#000000;fill-opacity:1;stroke:none;stroke-width:0.26458332"
       x="107.95"
       y="249.37502"
       id="text910"><tspan
         sodipodi:role="line"
         id="tspan908"
         x="107.95"
         y="249.37502"
         style="stroke-width:0.26458332">probe</tspan><tspan
         sodipodi:role="line"
         x="107.95"
         y="253.78474"
         style="stroke-width:0.26458332"
         id="tspan912">arm 2</tspan></text>
    <path
       style="fill:#a0892c;stroke-width:0.03988744"
       d="M 39.15732,228.64237 A 34.999996,34.999996 0 0 0 4.15739,263.6423 34.999996,34.999996 0 0 0 39.15732,298.64223 34.999996,34.999996 0 0 0 74.15725,263.6423 34.999996,34.999996 0 0 0 39.15732,228.64237 Z m -0.0641,6.99906 a 1.9999999,1.9999999 0 0 1 1.99988,1.99988 1.9999999,1.9999999 0 0 1 -1.99988,2.00039 1.9999999,1.9999999 0 0 1 -2.00039,-2.00039 1.9999999,1.9999999 0 0 1 2.00039,-1.99988 z m 25.93175,26.14569 a 1.9999998,1.9999998 0 0 1 1.99988,2.0004 1.9999998,1.9999998 0 0 1 -1.99988,1.99987 1.9999998,1.9999998 0 0 1 -1.99988,-1.99987 1.9999998,1.9999998 0 0 1 1.99988,-2.0004 z m -51.93429,0.0114 a 1.9999998,1.9999998 0 0 1 2.00039,2.00039 1.9999998,1.9999998 0 0 1 -2.00039,1.99988 1.9999998,1.9999998 0 0 1 -1.99988,-1.99988 1.9999998,1.9999998 0 0 1 1.99988,-2.00039 z m 24.21557,0.0119 h 3.82096 c 0.43741,0 0.78961,0.3522 0.78961,0.78962 v 2.22105 c 0,0.43742 -0.3522,0.78962 -0.78961,0.78962 h -3.82096 c -0.43741,0 -0.78961,-0.3522 -0.78961,-0.78962 v -2.22105 c 0,-0.43742 0.3522,-0.78962 0.78961,-0.78962 z m 1.81281,25.85114 a 1.9999998,1.9999998 0 0 1 1.99988,1.99988 1.9999998,1.9999998 0 0 1 -1.99988,1.99988 1.9999998,1.9999998 0 0 1 -2.00039,-1.99988 1.9999998,1.9999998 0 0 1 2.00039,-1.99988 z"
       id="path693-8"
       inkscape:connector-curvature="0" />
    <circle
       style="fill:#ff0000;stroke-width:0.10508139"
       id="path944-6"
       cx="-96.911919"
       cy="-17.121861"
       r="1.9999999" />
    <text
       xml:space="preserve"
       style="font-style:normal;font-weight:normal;font-size:3.52777767px;line-height:1.25;font-family:sans-serif;letter-spacing:0px;word-spacing:0px;fill:#000000;fill-opacity:1;stroke:none;stroke-width:0.26458332"
       x="25.459084"
       y="278.99887"
       id="text124"><tspan
         sodipodi:role="line"
         id="tspan122"
         x="25.459084"
         y="278.99887"
         style="font-size:3.52777767px;stroke-width:0.26458332">2mm motor base</tspan></text>
    <path
       style="fill:#ffdd55;stroke-width:0.93625247"
       d="M 668.4082 678.5 A 34.015748 34.015748 0 0 0 634.39062 712.51562 A 34.015748 34.015748 0 0 0 668.4082 746.53125 A 34.015748 34.015748 0 0 0 702.42383 712.51562 A 34.015748 34.015748 0 0 0 668.4082 678.5 z M 668.4082 708.28906 A 4.2141733 4.2141733 0 0 1 672.62305 712.50391 A 4.2141733 4.2141733 0 0 1 668.4082 716.7168 A 4.2141733 4.2141733 0 0 1 664.19336 712.50391 A 4.2141733 4.2141733 0 0 1 668.4082 708.28906 z "
       transform="scale(0.26458333)"
       id="path80" />
    <circle
       style="fill:#ff0000;stroke-width:0.3080444"
       id="path82-4"
       cx="221.3607"
       cy="196.5719"
       r="1.115" />
    <path
       inkscape:connector-curvature="0"
       style="fill:#ffdd55;stroke-width:0.2477168"
       d="m 196.1888,180.63915 a 9,9 0 0 0 -9.00049,8.99996 9,9 0 0 0 9.00049,8.99997 9,9 0 0 0 8.99996,-8.99997 9,9 0 0 0 -8.99996,-8.99996 z m 0,7.88168 a 1.115,1.115 0 0 1 1.11517,1.11518 1.115,1.115 0 0 1 -1.11517,1.11466 1.115,1.115 0 0 1 -1.11518,-1.11466 1.115,1.115 0 0 1 1.11518,-1.11518 z"
       id="path80-1" />
    <text
       xml:space="preserve"
       style="font-style:normal;font-weight:normal;font-size:1.41111112px;line-height:0;font-family:sans-serif;letter-spacing:0px;word-spacing:0px;fill:#000000;fill-opacity:1;stroke:none;stroke-width:0.26458332"
       x="170.78853"
       y="192.75415"
       id="text120"><tspan
         sodipodi:role="line"
         id="tspan118"
         x="170.78853"
         y="192.75415"
         style="font-size:1.41111112px;line-height:0;stroke-width:0.26458332">2mm thick disc 1</tspan></text>
    <text
       xml:space="preserve"
       style="font-style:normal;font-weight:normal;font-size:1.41111112px;line-height:1.25;font-family:sans-serif;letter-spacing:0px;word-spacing:0px;fill:#000000;fill-opacity:1;stroke:none;stroke-width:0.26458332"
       x="188.91249"
       y="192.42343"
       id="text125"><tspan
         sodipodi:role="line"
         id="tspan123"
         x="188.91249"
         y="192.42343"
         style="stroke-width:0.26458332">motor screw disc 2</tspan></text>
    <path
       inkscape:connector-curvature="0"
       style="fill:#00ff00;stroke-width:0.22914289"
       d="m -214.57024,-21.577448 a 1.605,1.605 0 0 0 -1.60506,-1.60507 1.605,1.605 0 0 0 -1.60508,1.60507 1.605,1.605 0 0 0 1.60508,1.60507 1.605,1.605 0 0 0 1.60506,-1.60507 z m -4.73148,4.71857 h -12.99972 V 8.1411508 h 12.99972 z m -1.0418,-25.03258 a 4.0100001,4.0100001 0 0 0 -4.01009,-4.010091 4.0100001,4.0100001 0 0 0 -4.01009,4.010091 4.0100001,4.0100001 0 0 0 4.01009,4.01009 4.0100001,4.0100001 0 0 0 4.01009,-4.01009 z m -2.16834,11.27425 a 1.9199999,1.9199999 0 0 0 -1.91978,-1.92029 1.9199999,1.9199999 0 0 0 -1.92029,1.92029 1.9199999,1.9199999 0 0 0 1.92029,1.91978 1.9199999,1.9199999 0 0 0 1.91978,-1.91978 z m -8.90023,8.99273 a 1.605,1.605 0 0 0 -1.60507,-1.60455 1.605,1.605 0 0 0 -1.60455,1.60455 1.605,1.605 0 0 0 1.60455,1.60507 1.605,1.605 0 0 0 1.60507,-1.60507 z"
       id="path4092-3-6-1" />
    <path
       style="fill:#a0892c;stroke-width:0.38177061"
       d="m 85.14465,90.497598 c -5.28225,0 -9.53482,3.921842 -9.53482,8.793264 v 0.206705 6.206853 8.79326 46.00029 h 4.02353 v 3.99407 h 3.99975 v -3.99407 h 2.45102 v -11.01586 h -1.44591 v -2.20039 h 1.44591 v -3.96668 h 2.99981 v 3.96668 h 1.55391 v 2.20039 h -1.55391 v 11.01586 h 2.52233 v 3.99976 h 3.99975 v -3.99976 h 4.0039 3.99975 v -4.00027 h -3.99975 v -42.00002 h 30.21675 26.24853 c 5.28225,0 9.53482,-3.92184 9.53482,-8.79326 v -6.413558 c 0,-4.871422 -4.25257,-8.793264 -9.53482,-8.793264 z m 44.11048,2.026235 a 1.605,1.605 0 0 1 1.60456,1.604553 1.605,1.605 0 0 1 -1.60456,1.605068 1.605,1.605 0 0 1 -1.60507,-1.605068 1.605,1.605 0 0 1 1.60507,-1.604553 z m -29.76562,2.320272 h 25.00002 V 107.84382 H 99.48951 Z m 50.0326,3.937743 a 4.0100001,4.0100001 0 0 1 4.0101,4.010092 4.0100001,4.0100001 0 0 1 -4.0101,4.01008 4.0100001,4.0100001 0 0 1 -4.01009,-4.01008 4.0100001,4.0100001 0 0 1 4.01009,-4.010092 z m -11.27424,2.011762 a 1.9199999,1.9199999 0 0 1 1.92029,1.9203 1.9199999,1.9199999 0 0 1 -1.92029,1.91978 1.9199999,1.9199999 0 0 1 -1.91978,-1.91978 1.9199999,1.9199999 0 0 1 1.91978,-1.9203 z m -9.03976,8.57157 a 1.605,1.605 0 0 1 1.60507,1.60507 1.605,1.605 0 0 1 -1.60507,1.60507 1.605,1.605 0 0 1 -1.60507,-1.60507 1.605,1.605 0 0 1 1.60507,-1.60507 z M 71.59922,156.4977 v 4.00027 h 3.99976 v -4.00027 z"
       id="rect441-2-2"
       inkscape:connector-curvature="0" />
    <text
       xml:space="preserve"
       style="font-style:normal;font-weight:normal;font-size:3.52777767px;line-height:1.25;font-family:sans-serif;letter-spacing:0px;word-spacing:0px;fill:#000000;fill-opacity:1;stroke:none;stroke-width:0.26458332"
       x="77.302116"
       y="138.35263"
       id="text608"><tspan
         sodipodi:role="line"
         id="tspan606"
         x="77.302116"
         y="138.35263"
         style="stroke-width:0.26458332">base arm 2</tspan></text>
    <path
       style="fill:#a0892c;stroke-width:0.38177061"
       d="m 121.93622,-98.558189 c -5.28225,0 -9.53482,3.92185 -9.53482,8.79327 v 0.2067 6.206857 8.793263 46.000291 h 4.02353 v 3.994071 h 3.99976 v -3.994071 h 2.45101 v -11.015863 h -1.4459 v -2.200384 h 1.4459 v -3.966683 h 2.99982 v 3.966683 h 1.55391 v 2.200384 h -1.55391 v 11.015863 h 2.52233 v 3.999757 h 3.99975 v -3.999757 h 4.00389 3.99976 v -4.000272 h -3.99976 v -42.000019 h 30.21676 26.24853 c 5.28225,0 9.53482,-3.921842 9.53482,-8.793263 v -6.413557 c 0,-4.87142 -4.25257,-8.79327 -9.53482,-8.79327 z m -13.54543,66.000109 v 4.000272 h 3.99976 v -4.000272 z"
       id="rect441-2-24"
       inkscape:connector-curvature="0" />
    <path
       style="fill:#a0892c;stroke-width:0.03988744"
       d="m 43.264253,-102.94769 a 34.999996,34.999996 0 0 0 -34.9999309,34.999929 34.999996,34.999996 0 0 0 34.9999309,34.999933 34.999996,34.999996 0 0 0 34.99993,-34.999933 34.999996,34.999996 0 0 0 -34.99993,-34.999929 z m -0.06511,7.037297 a 1.9999997,1.9999997 0 0 1 2.000396,1.999877 1.9999997,1.9999997 0 0 1 -2.000396,1.999877 1.9999997,1.9999997 0 0 1 -1.999877,-1.999877 1.9999997,1.9999997 0 0 1 1.999877,-1.999877 z m 0.06511,17.318321 a 1.9999999,1.9999999 0 0 1 1.999877,1.999879 1.9999999,1.9999999 0 0 1 -1.999877,2.000393 1.9999999,1.9999999 0 0 1 -2.000395,-2.000393 1.9999999,1.9999999 0 0 1 2.000395,-1.999879 z m -8.031035,0.0083 h 4.000272 v 4.000275 h -4.000272 z m 11.99565,0 h 3.978568 c 0.0059,0 0.01137,0.005 0.01137,0.01085 v 3.978569 c 0,0.0059 -0.0054,0.01085 -0.01137,0.01085 h -3.978568 c -0.0059,-3e-6 -0.01085,-0.005 -0.01085,-0.01085 v -3.978569 c 0,-0.0059 0.0049,-0.01085 0.01085,-0.01085 z m 21.898406,8.797396 a 1.9999997,1.9999997 0 0 1 1.999876,1.999879 1.9999997,1.9999997 0 0 1 -1.999876,1.999877 1.9999997,1.9999997 0 0 1 -1.99988,-1.999877 1.9999997,1.9999997 0 0 1 1.99988,-1.999879 z m -51.928614,0.0031 a 1.9999997,1.9999997 0 0 1 1.999878,2.000395 1.9999997,1.9999997 0 0 1 -1.999878,1.999877 1.9999997,1.9999997 0 0 1 -2.000394,-1.999877 1.9999997,1.9999997 0 0 1 2.000394,-2.000395 z m 26.065593,8.190198 a 1.9999999,1.9999999 0 0 1 1.999877,1.999877 1.9999999,1.9999999 0 0 1 -1.999877,2.000395 1.9999999,1.9999999 0 0 1 -2.000395,-2.000395 1.9999999,1.9999999 0 0 1 2.000395,-1.999877 z m -8.031035,0.0083 h 4.000272 v 4.000272 h -4.000272 v -0.376203 c -0.03063,0.02181 -0.05168,0.05612 -0.05168,0.09663 v -0.120406 h 0.05168 z m 11.99565,0 h 3.978568 c 0.0059,0 0.01137,0.005 0.01137,0.01085 v 3.978569 c 0,0.0059 -0.0054,0.01085 -0.01137,0.01085 h -3.978568 c -0.0059,0 -0.01085,-0.005 -0.01085,-0.01085 v -0.389125 h -0.06253 v -0.01137 h 0.06253 v -3.578074 c 0,-0.0059 0.0049,-0.01085 0.01085,-0.01085 z m -4.033346,17.661453 a 1.9999997,1.9999997 0 0 1 1.99988,1.99988 1.9999997,1.9999997 0 0 1 -1.99988,1.999877 1.9999997,1.9999997 0 0 1 -1.999877,-1.999877 1.9999997,1.9999997 0 0 1 1.999877,-1.99988 z"
       id="path693-6-2-5"
       inkscape:connector-curvature="0" />
    <rect
       style="fill:#a0892c;stroke-width:0.26458332"
       id="rect3907"
       width="28.250387"
       height="13.657472"
       x="-88.492943"
       y="-88.215569"
       ry="0.10225616" />
    <text
       xml:space="preserve"
       style="font-style:normal;font-weight:normal;font-size:3.52777767px;line-height:1.25;font-family:sans-serif;letter-spacing:0px;word-spacing:0px;fill:#000000;fill-opacity:1;stroke:none;stroke-width:0.26458332"
       x="33.096752"
       y="-49.58176"
       id="text3936"><tspan
         sodipodi:role="line"
         id="tspan3934"
         x="33.096752"
         y="-49.58176"
         style="stroke-width:0.26458332">servo base</tspan></text>
    <flowRoot
       xml:space="preserve"
       id="flowRoot3955"
       style="font-style:normal;font-weight:normal;font-size:13.33333302px;line-height:1.25;font-family:sans-serif;letter-spacing:0px;word-spacing:0px;fill:#000000;fill-opacity:1;stroke:none"
       transform="scale(0.26458333)"><flowRegion
         id="flowRegion3957"><rect
           id="rect3959"
           width="145.41478"
           height="31.5"
           x="523"
           y="-345.48032" /></flowRegion><flowPara
         id="flowPara3961">servo motor Arm</flowPara></flowRoot>  </g>
</svg>
